<svg width="20" height="21" viewBox="0 0 20 21" fill="none" xmlns="http://www.w3.org/2000/svg">
<g clip-path="url(#clip0_849_1564)">
<path d="M5.9375 18H3.4375C3.18886 18 2.9504 17.9012 2.77459 17.7254C2.59877 17.5496 2.5 17.3111 2.5 17.0625V7.6875C2.5 7.43886 2.59877 7.2004 2.77459 7.02459C2.9504 6.84877 3.18886 6.75 3.4375 6.75H10.3125C10.5611 6.75 10.7996 6.84877 10.9754 7.02459C11.1512 7.2004 11.25 7.43886 11.25 7.6875V8.3125C11.25 8.39538 11.2829 8.47487 11.3415 8.53347C11.4001 8.59208 11.4796 8.625 11.5625 8.625C11.6454 8.625 11.7249 8.59208 11.7835 8.53347C11.8421 8.47487 11.875 8.39538 11.875 8.3125V7.6875C11.8745 7.27325 11.7097 6.87611 11.4168 6.58319C11.1239 6.29028 10.7267 6.1255 10.3125 6.125V2.0625C10.3125 1.81386 10.2137 1.5754 10.0379 1.39959C9.8621 1.22377 9.62364 1.125 9.375 1.125H9.005C8.9406 0.942841 8.82149 0.785029 8.66397 0.673152C8.50645 0.561276 8.31821 0.500801 8.125 0.5H5.625C5.43179 0.500801 5.24355 0.561276 5.08603 0.673152C4.92851 0.785029 4.8094 0.942841 4.745 1.125H4.375C4.12636 1.125 3.8879 1.22377 3.71209 1.39959C3.53627 1.5754 3.4375 1.81386 3.4375 2.0625V5.1875C3.4375 5.27038 3.47042 5.34987 3.52903 5.40847C3.58763 5.46708 3.66712 5.5 3.75 5.5C3.83288 5.5 3.91237 5.46708 3.97097 5.40847C4.02958 5.34987 4.0625 5.27038 4.0625 5.1875V2.0625C4.0625 1.97962 4.09542 1.90013 4.15403 1.84153C4.21263 1.78292 4.29212 1.75 4.375 1.75H4.745C4.8094 1.93216 4.92851 2.08997 5.08603 2.20185C5.24355 2.31372 5.43179 2.3742 5.625 2.375H8.125C8.31821 2.3742 8.50645 2.31372 8.66397 2.20185C8.82149 2.08997 8.9406 1.93216 9.005 1.75H9.375C9.45788 1.75 9.53737 1.78292 9.59597 1.84153C9.65458 1.90013 9.6875 1.97962 9.6875 2.0625V6.125H3.4375C3.02325 6.1255 2.62611 6.29028 2.33319 6.58319C2.04028 6.87611 1.8755 7.27325 1.875 7.6875V17.0625C1.87626 17.4531 2.02399 17.8289 2.28901 18.1158C2.55402 18.4027 2.91702 18.5797 3.30625 18.6119C3.18878 18.8041 3.12611 19.0247 3.125 19.25C3.125 19.5815 3.2567 19.8995 3.49112 20.1339C3.72554 20.3683 4.04348 20.5 4.375 20.5C4.70652 20.5 5.02446 20.3683 5.25888 20.1339C5.4933 19.8995 5.625 19.5815 5.625 19.25C5.6237 19.0299 5.56373 18.8142 5.45125 18.625H5.9375C6.02038 18.625 6.09987 18.5921 6.15847 18.5335C6.21708 18.4749 6.25 18.3954 6.25 18.3125C6.25 18.2296 6.21708 18.1501 6.15847 18.0915C6.09987 18.0329 6.02038 18 5.9375 18ZM8.125 1.75H5.625C5.54212 1.75 5.46263 1.71708 5.40403 1.65847C5.34542 1.59987 5.3125 1.52038 5.3125 1.4375C5.3125 1.35462 5.34542 1.27513 5.40403 1.21653C5.46263 1.15792 5.54212 1.125 5.625 1.125H8.125C8.20788 1.125 8.28737 1.15792 8.34597 1.21653C8.40458 1.27513 8.4375 1.35462 8.4375 1.4375C8.4375 1.52038 8.40458 1.59987 8.34597 1.65847C8.28737 1.71708 8.20788 1.75 8.125 1.75ZM5 19.25C5 19.3736 4.96334 19.4944 4.89467 19.5972C4.82599 19.7 4.72838 19.7801 4.61418 19.8274C4.49997 19.8747 4.37431 19.8871 4.25307 19.863C4.13183 19.8389 4.02047 19.7794 3.93306 19.6919C3.84565 19.6045 3.78612 19.4932 3.76201 19.3719C3.73789 19.2507 3.75027 19.125 3.79758 19.0108C3.84488 18.8966 3.92499 18.799 4.02777 18.7303C4.13055 18.6617 4.25139 18.625 4.375 18.625C4.54076 18.625 4.69973 18.6908 4.81694 18.8081C4.93415 18.9253 5 19.0842 5 19.25Z" fill="black"/>
<path d="M17.1875 11.75H14.6875V10.1875C14.6875 9.93886 14.5887 9.7004 14.4129 9.52459C14.2371 9.34877 13.9986 9.25 13.75 9.25H11.25C11.0014 9.25 10.7629 9.34877 10.5871 9.52459C10.4113 9.7004 10.3125 9.93886 10.3125 10.1875V11.75H7.8125C7.56386 11.75 7.3254 11.8488 7.14959 12.0246C6.97377 12.2004 6.875 12.4389 6.875 12.6875V19.5625C6.875 19.8111 6.97377 20.0496 7.14959 20.2254C7.3254 20.4012 7.56386 20.5 7.8125 20.5H17.1875C17.4361 20.5 17.6746 20.4012 17.8504 20.2254C18.0262 20.0496 18.125 19.8111 18.125 19.5625V12.6875C18.125 12.4389 18.0262 12.2004 17.8504 12.0246C17.6746 11.8488 17.4361 11.75 17.1875 11.75ZM15.625 12.375H16.25V12.6875C16.25 12.7704 16.2171 12.8499 16.1585 12.9085C16.0999 12.9671 16.0204 13 15.9375 13C15.8546 13 15.7751 12.9671 15.7165 12.9085C15.6579 12.8499 15.625 12.7704 15.625 12.6875V12.375ZM10.9375 10.1875C10.9375 10.1046 10.9704 10.0251 11.029 9.96653C11.0876 9.90792 11.1671 9.875 11.25 9.875H13.75C13.8329 9.875 13.9124 9.90792 13.971 9.96653C14.0296 10.0251 14.0625 10.1046 14.0625 10.1875V11.75H10.9375V10.1875ZM8.75 12.375H9.375V12.6875C9.375 12.7704 9.34208 12.8499 9.28347 12.9085C9.22487 12.9671 9.14538 13 9.0625 13C8.97962 13 8.90013 12.9671 8.84153 12.9085C8.78292 12.8499 8.75 12.7704 8.75 12.6875V12.375ZM17.5 19.5625C17.5 19.6454 17.4671 19.7249 17.4085 19.7835C17.3499 19.8421 17.2704 19.875 17.1875 19.875H7.8125C7.72962 19.875 7.65013 19.8421 7.59153 19.7835C7.53292 19.7249 7.5 19.6454 7.5 19.5625V18.625H16.5625C16.6454 18.625 16.7249 18.5921 16.7835 18.5335C16.8421 18.4749 16.875 18.3954 16.875 18.3125C16.875 18.2296 16.8421 18.1501 16.7835 18.0915C16.7249 18.0329 16.6454 18 16.5625 18H7.5V12.6875C7.5 12.6046 7.53292 12.5251 7.59153 12.4665C7.65013 12.4079 7.72962 12.375 7.8125 12.375H8.125V12.6875C8.125 12.9361 8.22377 13.1746 8.39959 13.3504C8.5754 13.5262 8.81386 13.625 9.0625 13.625C9.31114 13.625 9.5496 13.5262 9.72541 13.3504C9.90123 13.1746 10 12.9361 10 12.6875V12.375H15V12.6875C15 12.9361 15.0988 13.1746 15.2746 13.3504C15.4504 13.5262 15.6889 13.625 15.9375 13.625C16.1861 13.625 16.4246 13.5262 16.6004 13.3504C16.7762 13.1746 16.875 12.9361 16.875 12.6875V12.375H17.1875C17.2704 12.375 17.3499 12.4079 17.4085 12.4665C17.4671 12.5251 17.5 12.6046 17.5 12.6875V19.5625Z" fill="black"/>
</g>
<defs>
<clipPath id="clip0_849_1564">
<rect width="20" height="20" fill="white" transform="translate(0 0.5)"/>
</clipPath>
</defs>
</svg>
