<svg width="24" height="24" viewBox="0 0 24 24" fill="none" xmlns="http://www.w3.org/2000/svg">
<g clip-path="url(#clip0_279_2700)">
<path d="M21.931 16.2793L20.8274 15.6422L21.476 15.3658C22.1166 15.0928 22.414 14.3538 22.1411 13.7132C21.8688 13.0745 21.1278 12.7762 20.4886 13.0482L18.0984 14.0665L15.3158 12.46C15.3578 12.1592 15.3594 11.8523 15.3158 11.5399L15.9696 11.1625C16.1378 11.0654 16.1954 10.8504 16.0983 10.6822C16.0012 10.514 15.7861 10.4566 15.618 10.5535L14.7507 11.0543C14.6181 11.1308 14.5503 11.2844 14.5831 11.434C14.6653 11.8091 14.6653 12.1907 14.5831 12.566C14.5503 12.7155 14.6181 12.8691 14.7507 12.9457L17.8989 14.7633C17.9946 14.8185 18.1108 14.8256 18.2124 14.7822L20.764 13.6951C21.0464 13.5749 21.3739 13.7067 21.4942 13.9888C21.6146 14.2717 21.4834 14.5983 21.2003 14.7189L19.9041 15.2712C19.6381 15.3845 19.6154 15.7543 19.8661 15.8991L21.5794 16.8883C21.8451 17.0417 21.9364 17.3827 21.783 17.6484C21.6327 17.9087 21.2942 18.0088 21.0229 17.8521L19.3097 16.8628C19.059 16.718 18.7501 16.9228 18.7849 17.2097L18.9548 18.6085C18.9727 18.756 18.9321 18.9017 18.8404 19.0187C18.7488 19.1357 18.617 19.21 18.4698 19.2279C18.1614 19.2658 17.8867 19.044 17.85 18.7425L17.5157 15.989C17.5024 15.8793 17.4382 15.7822 17.3425 15.727L14.1933 13.9088C14.0607 13.8323 13.8938 13.8504 13.7806 13.9536C13.4999 14.2097 13.1611 14.4057 12.8011 14.5205C12.6554 14.5669 12.5563 14.7024 12.5563 14.8554V18.4903C12.5563 18.6009 12.6083 18.705 12.6967 18.7714L14.9141 20.4377C15.1599 20.6223 15.2095 20.9709 15.0246 21.2168C14.8384 21.4647 14.4896 21.5108 14.2456 21.3273L13.1191 20.4808C12.8871 20.3066 12.5563 20.4734 12.5563 20.7619V22.7402C12.5563 23.047 12.3067 23.2967 11.9999 23.2967C11.6931 23.2967 11.4435 23.0471 11.4435 22.7402V20.7619C11.4435 20.4723 11.1117 20.3071 10.8806 20.4808L9.75418 21.3273C9.35621 21.626 8.79995 21.2911 8.86899 20.8042C8.88985 20.6571 8.96682 20.5269 9.08565 20.4377L11.3031 18.7714C11.3915 18.705 11.4435 18.6009 11.4435 18.4904V14.8554C11.4435 14.7024 11.3445 14.567 11.1986 14.5205C10.8386 14.4057 10.4999 14.2097 10.2192 13.9536C10.106 13.8503 9.9391 13.8322 9.8064 13.9088L6.65721 15.727C6.56149 15.7822 6.49731 15.8793 6.484 15.989L6.14969 18.7426C6.11313 19.0439 5.83929 19.2651 5.53019 19.2279C5.22504 19.1909 5.00777 18.9138 5.0449 18.6085L5.21473 17.2097C5.2496 16.9226 4.9407 16.718 4.68992 16.8628L2.97664 17.852C2.7057 18.0086 2.36703 17.9089 2.21657 17.6484C2.06319 17.3827 2.15455 17.0417 2.42024 16.8882L4.13346 15.8991C4.38378 15.7546 4.36189 15.3846 4.0955 15.2712L2.79922 14.7188C2.51628 14.5983 2.38489 14.2718 2.50541 13.9888C2.62602 13.7058 2.95241 13.5745 3.23544 13.695L5.78721 14.7822C5.88879 14.8255 6.00499 14.8184 6.10075 14.7632L9.24891 12.9457C9.38152 12.8691 9.4493 12.7155 9.41654 12.5659C9.33441 12.1909 9.33432 11.8092 9.41654 11.434C9.4493 11.2845 9.38152 11.1308 9.24891 11.0543L6.10075 9.23668C6.00508 9.18142 5.88888 9.17443 5.78721 9.21774L3.23544 10.3049C2.95058 10.4261 2.62531 10.2925 2.50546 10.0111C2.38517 9.72887 2.51699 9.40131 2.79922 9.28103L4.09545 8.72875C4.36189 8.61522 4.38373 8.24533 4.13346 8.10081L2.42024 7.11161C2.15389 6.95791 2.06282 6.61793 2.21657 6.35154C2.37022 6.08529 2.7103 5.99398 2.97669 6.14787L4.69001 7.13707C4.94131 7.2821 5.2496 7.07655 5.21482 6.79024L5.04499 5.3914C5.00787 5.0862 5.2249 4.80903 5.53038 4.772C5.83483 4.73487 6.11266 4.95129 6.14979 5.25734L6.4841 8.01081C6.49741 8.12055 6.56158 8.21762 6.6573 8.27289L9.80649 10.091C9.93919 10.1676 10.1061 10.1495 10.2193 10.0463C10.4999 9.79027 10.8386 9.5942 11.1988 9.4794C11.3445 9.43295 11.4435 9.29748 11.4435 9.14443V5.50953C11.4435 5.39899 11.3916 5.29489 11.3032 5.22846L9.08574 3.56225C8.84049 3.37794 8.79085 3.02839 8.97516 2.7831C9.15985 2.53724 9.50841 2.48769 9.75422 2.67252L10.8807 3.51899C11.1123 3.69284 11.4435 3.52705 11.4435 3.23792V1.25962C11.4435 0.952824 11.6931 0.703169 11.9999 0.703169C12.3067 0.703169 12.5564 0.952778 12.5564 1.25962V3.23802C12.5564 3.52756 12.8881 3.6928 13.1192 3.51908L14.2456 2.67266C14.491 2.48844 14.8406 2.53804 15.0248 2.78319C15.2091 3.02849 15.1595 3.37803 14.9142 3.56235L12.6968 5.22856C12.6084 5.29498 12.5564 5.39909 12.5564 5.50962V6.59604C12.5564 6.79019 12.7138 6.9476 12.908 6.9476C13.1022 6.9476 13.2596 6.79019 13.2596 6.59604V5.68521L15.3366 4.12447C15.8919 3.70719 16.0042 2.91599 15.5869 2.36076C15.1699 1.80576 14.3788 1.69335 13.8233 2.11044L13.2596 2.53405V1.25962C13.2596 0.565076 12.6945 0 12 0C11.3055 0 10.7404 0.565076 10.7404 1.25962V2.53405L10.1766 2.11044C9.61988 1.69213 8.83112 1.80416 8.4129 2.3608C7.99572 2.91608 8.10803 3.70728 8.66321 4.12447L10.7403 5.68517V8.89843C10.4565 9.01436 10.1873 9.17017 9.94468 9.35893L7.16092 7.75174L6.84775 5.17268C6.76385 4.48067 6.13525 3.98961 5.44554 4.07403C4.75446 4.15784 4.26298 4.78508 4.34693 5.47624L4.43192 6.17623L3.32834 5.53906C2.72567 5.19087 1.95575 5.39698 1.60766 6.00012C1.25962 6.60297 1.46568 7.37266 2.06872 7.7207L3.1723 8.35787L2.52369 8.63425C1.88469 8.9065 1.58638 9.64782 1.85858 10.2868C2.13177 10.928 2.87173 11.2244 3.51106 10.9519L5.9013 9.93352L8.68384 11.5401C8.6424 11.8376 8.63987 12.1445 8.68388 12.4601L5.9013 14.0666L3.51111 13.0483C2.87084 12.7754 2.13153 13.0724 1.85858 13.7133C1.58572 14.3538 1.883 15.093 2.52364 15.3658L3.1723 15.6422L2.06872 16.2794C1.46727 16.6266 1.26046 17.3985 1.60766 18C1.95327 18.5988 2.72366 18.8103 3.3283 18.4611L4.43192 17.8239L4.34693 18.5238C4.30639 18.8578 4.39831 19.1876 4.60578 19.4525C5.29657 20.3342 6.71294 19.9383 6.8477 18.8275L7.16087 16.2483L9.94458 14.6411C10.1873 14.8298 10.4565 14.9856 10.7403 15.1016V18.3149L8.66321 19.8756C8.10793 20.2928 7.99562 21.084 8.41285 21.6392C8.83107 22.196 9.61979 22.3077 10.1765 21.8896L10.7402 21.466V22.7404C10.7402 23.435 11.3053 24 11.9998 24C12.6944 24 13.2594 23.435 13.2594 22.7404V21.466L13.8231 21.8896C14.3847 22.3118 15.1738 22.189 15.5868 21.6393C16.005 21.0827 15.893 20.2939 15.3365 19.8756L13.2594 18.3149V15.1016C13.5431 14.9856 13.8124 14.8299 14.0551 14.6411L16.8388 16.2483L17.152 18.8274C17.2873 19.9429 18.7066 20.3298 19.3939 19.4525C19.6014 19.1876 19.6933 18.8578 19.6527 18.5238L19.5677 17.8239L20.6713 18.461C21.2731 18.8087 22.0448 18.6014 22.392 18C22.7393 17.3985 22.5325 16.6266 21.931 16.2793Z" fill="black"/>
<path d="M21.4764 8.63439L20.8278 8.35806L21.9315 7.72085C22.5344 7.37276 22.7406 6.60321 22.3925 6.00026C22.0445 5.39731 21.2748 5.19097 20.6719 5.5392L19.5683 6.17637L19.6533 5.47644C19.737 4.78536 19.2458 4.15794 18.5547 4.07408C17.8634 3.98989 17.2362 4.48152 17.1523 5.17269L16.8392 7.75179L14.0554 9.35898C13.8128 9.17031 13.5435 9.01445 13.2598 8.89848V8.2368C13.2598 8.04264 13.1024 7.88524 12.9082 7.88524C12.714 7.88524 12.5566 8.04264 12.5566 8.2368V9.14453C12.5566 9.29758 12.6556 9.433 12.8014 9.4795C13.1616 9.59429 13.5002 9.79033 13.7809 10.0464C13.894 10.1495 14.0609 10.1677 14.1937 10.0911L17.3429 8.27299C17.4386 8.21772 17.5028 8.12064 17.5161 8.01091L17.8504 5.25744C17.8872 4.9543 18.1618 4.73492 18.4699 4.77209C18.7751 4.80913 18.9923 5.08616 18.9552 5.39154L18.7854 6.79034C18.7693 6.92257 18.8294 7.05255 18.9405 7.12601C19.0517 7.19951 19.1948 7.20377 19.3102 7.13716L21.0236 6.14796C21.2898 5.99417 21.6297 6.08525 21.7836 6.35168C21.9374 6.61802 21.8463 6.95801 21.5799 7.11176L19.8667 8.10091C19.7513 8.16752 19.6835 8.29361 19.6916 8.4266C19.6996 8.55958 19.7821 8.67658 19.9047 8.7288L21.2009 9.28108C21.4832 9.40136 21.615 9.72892 21.4947 10.0112C21.3746 10.293 21.049 10.426 20.7647 10.305L18.213 9.2178C18.1114 9.17453 17.9952 9.18147 17.8994 9.23673L17.0395 9.73323C16.8713 9.83031 16.8137 10.0453 16.9108 10.2135C17.0078 10.3817 17.2229 10.4392 17.3911 10.3422L18.099 9.93348L20.4892 10.9519C21.1282 11.2239 21.8681 10.9288 22.1416 10.2868C22.4139 9.64797 22.1154 8.90664 21.4764 8.63439Z" fill="black"/>
<path d="M11.9998 10.468C11.155 10.468 10.4678 11.1552 10.4678 12C10.4678 12.8448 11.155 13.5321 11.9998 13.5321C12.8446 13.5321 13.5318 12.8448 13.5318 12C13.5318 11.1552 12.8446 10.468 11.9998 10.468ZM11.9997 12.8289C11.5427 12.8289 11.1709 12.4571 11.1709 12C11.1709 11.543 11.5427 11.1712 11.9997 11.1712C12.4568 11.1712 12.8286 11.543 12.8286 12C12.8286 12.4571 12.4568 12.8289 11.9997 12.8289Z" fill="black"/>
</g>
<defs>
<clipPath id="clip0_279_2700">
<rect width="24" height="24" fill="white"/>
</clipPath>
</defs>
</svg>
