<svg width="20" height="21" viewBox="0 0 20 21" fill="none" xmlns="http://www.w3.org/2000/svg">
<g clip-path="url(#clip0_1010_1602)">
<path d="M18.2758 14.0661L17.3561 13.5351L17.8966 13.3048C18.4305 13.0774 18.6783 12.4615 18.4509 11.9277C18.224 11.3954 17.6065 11.1468 17.0738 11.3735L15.082 12.2221L12.7632 10.8833C12.7982 10.6327 12.7995 10.3769 12.7632 10.1166L13.308 9.80207C13.4481 9.72118 13.4962 9.542 13.4153 9.40184C13.3344 9.26168 13.1551 9.21379 13.015 9.29461L12.2923 9.71192C12.1818 9.77571 12.1253 9.90367 12.1526 10.0283C12.221 10.3409 12.221 10.6589 12.1526 10.9716C12.1253 11.0962 12.1817 11.2243 12.2923 11.2881L14.9157 12.8027C14.9955 12.8488 15.0923 12.8546 15.177 12.8185L17.3033 11.9126C17.5386 11.8125 17.8116 11.9222 17.9118 12.1573C18.0122 12.3931 17.9028 12.6653 17.6669 12.7657L16.5867 13.226C16.3651 13.3204 16.3462 13.6286 16.5551 13.7493L17.9828 14.5736C18.2042 14.7014 18.2803 14.9856 18.1525 15.207C18.0273 15.4239 17.7452 15.5073 17.5191 15.3767L16.0915 14.5524C15.8825 14.4316 15.6251 14.6024 15.6541 14.8414L15.7956 16.007C15.8106 16.13 15.7767 16.2514 15.7004 16.3489C15.624 16.4464 15.5142 16.5083 15.3915 16.5232C15.1345 16.5548 14.9056 16.37 14.875 16.1188L14.5964 13.8242C14.5853 13.7328 14.5319 13.6519 14.4521 13.6058L11.8278 12.0907C11.7173 12.0269 11.5782 12.042 11.4838 12.128C11.2499 12.3414 10.9676 12.5048 10.6676 12.6004C10.5461 12.6391 10.4636 12.752 10.4636 12.8795V15.9086C10.4636 16.0007 10.5069 16.0875 10.5805 16.1428L12.4284 17.5314C12.6332 17.6853 12.6746 17.9757 12.5205 18.1806C12.3653 18.3873 12.0747 18.4257 11.8713 18.2728L10.9326 17.5674C10.7393 17.4222 10.4636 17.5612 10.4636 17.8016V19.4502C10.4636 19.7059 10.2556 19.9139 9.99988 19.9139C9.74422 19.9139 9.53621 19.7059 9.53621 19.4502V17.8016C9.53621 17.5603 9.25976 17.4226 9.06719 17.5674L8.12848 18.2728C7.79684 18.5216 7.33329 18.2425 7.39083 17.8368C7.40821 17.7142 7.47235 17.6058 7.57137 17.5314L9.41926 16.1429C9.49289 16.0875 9.53621 16.0008 9.53621 15.9087V12.8795C9.53621 12.752 9.45371 12.6391 9.33219 12.6004C9.03219 12.5048 8.74992 12.3414 8.51598 12.128C8.42164 12.0419 8.28258 12.0269 8.172 12.0907L5.54767 13.6058C5.46791 13.6519 5.41443 13.7328 5.40334 13.8242L5.12474 16.1188C5.09427 16.3699 4.86607 16.5542 4.60849 16.5233C4.3542 16.4924 4.17314 16.2615 4.20408 16.007L4.3456 14.8414C4.37467 14.6022 4.11725 14.4317 3.90826 14.5524L2.48053 15.3767C2.25475 15.5072 1.97253 15.4241 1.84714 15.207C1.71933 14.9856 1.79546 14.7014 2.01686 14.5735L3.44455 13.7492C3.65315 13.6288 3.6349 13.3205 3.41291 13.226L2.33268 12.7657C2.0969 12.6652 1.98741 12.3932 2.08784 12.1573C2.18835 11.9215 2.46034 11.8121 2.6962 11.9125L4.82267 12.8185C4.90732 12.8546 5.00416 12.8487 5.08396 12.8027L7.70743 11.288C7.81793 11.2243 7.87442 11.0963 7.84711 10.9716C7.77868 10.6591 7.7786 10.341 7.84711 10.0283C7.87442 9.90371 7.81793 9.77571 7.70743 9.71188L5.08396 8.19724C5.00424 8.15118 4.9074 8.14536 4.82267 8.18145L2.6962 9.08743C2.45882 9.1884 2.18776 9.07708 2.08788 8.84258C1.98765 8.60739 2.09749 8.33442 2.33268 8.23419L3.41287 7.77396C3.6349 7.67935 3.65311 7.37111 3.44455 7.25068L2.01686 6.42634C1.79491 6.29826 1.71901 6.01494 1.84714 5.79295C1.97518 5.57107 2.25858 5.49498 2.48057 5.62322L3.90834 6.44755C4.11775 6.56841 4.37467 6.39713 4.34568 6.15853L4.20416 4.99283C4.17322 4.7385 4.35408 4.50752 4.60865 4.47666C4.86236 4.44573 5.09388 4.62608 5.12482 4.88112L5.40341 7.17568C5.41451 7.26712 5.46798 7.34802 5.54775 7.39407L8.17207 8.90919C8.28266 8.97301 8.42172 8.95794 8.51606 8.87192C8.74992 8.65856 9.03219 8.49516 9.3323 8.3995C9.45379 8.36079 9.53629 8.2479 9.53629 8.12036V5.09127C9.53629 4.99916 9.49297 4.9124 9.41933 4.85705L7.57145 3.46854C7.36708 3.31495 7.32571 3.02366 7.4793 2.81925C7.63321 2.61437 7.92368 2.57308 8.12852 2.7271L9.06727 3.43249C9.26023 3.57737 9.53629 3.43921 9.53629 3.19827V1.54968C9.53629 1.29402 9.74426 1.08597 9.99996 1.08597C10.2556 1.08597 10.4637 1.29398 10.4637 1.54968V3.19835C10.4637 3.43964 10.7401 3.57733 10.9327 3.43257L11.8713 2.72722C12.0758 2.5737 12.3671 2.61503 12.5207 2.81933C12.6743 3.02374 12.6329 3.31503 12.4285 3.46862L10.5807 4.85713C10.507 4.91248 10.4637 4.99924 10.4637 5.09135V5.9967C10.4637 6.15849 10.5948 6.28967 10.7567 6.28967C10.9185 6.28967 11.0496 6.15849 11.0496 5.9967V5.23768L12.7805 3.93706C13.2433 3.58932 13.3368 2.92999 12.9891 2.4673C12.6416 2.0048 11.9823 1.91113 11.5194 2.2587L11.0497 2.61171V1.54968C11.0497 0.970897 10.5788 0.5 10 0.5C9.42125 0.5 8.95035 0.970897 8.95035 1.54968V2.61171L8.48047 2.2587C8.01657 1.91011 7.35926 2.00347 7.01075 2.46734C6.6631 2.93007 6.75669 3.5894 7.21934 3.93706L8.95027 5.23764V7.91536C8.71379 8.01196 8.48942 8.14181 8.28723 8.29911L5.96743 6.95978L5.70646 4.81057C5.63654 4.23389 5.11271 3.82467 4.53795 3.89503C3.96205 3.96487 3.55248 4.48756 3.62244 5.06354L3.69326 5.64685L2.77362 5.11588C2.27139 4.82573 1.6298 4.99748 1.33972 5.5001C1.04968 6.00248 1.2214 6.64388 1.72394 6.93392L2.64358 7.46489L2.10307 7.69521C1.57058 7.92208 1.32198 8.53985 1.54882 9.07231C1.77647 9.60668 2.39311 9.85367 2.92588 9.62657L4.91775 8.77794L7.23653 10.1167C7.202 10.3647 7.19989 10.6204 7.23657 10.8834L4.91775 12.2222L2.92592 11.3736C2.39237 11.1462 1.77628 11.3937 1.54882 11.9278C1.32144 12.4615 1.56917 13.0775 2.10304 13.3049L2.64358 13.5352L1.72394 14.0662C1.22273 14.3555 1.05038 14.9987 1.33972 15.5C1.62772 15.999 2.26971 16.1752 2.77358 15.8842L3.69326 15.3532L3.62244 15.9365C3.58865 16.2148 3.66526 16.4897 3.83815 16.7104C4.41381 17.4452 5.59412 17.1153 5.70642 16.1895L5.9674 14.0402L8.28715 12.7009C8.48938 12.8582 8.71379 12.988 8.95024 13.0847V15.7624L7.21934 17.063C6.75661 17.4107 6.66302 18.07 7.01071 18.5327C7.35923 18.9966 8.01649 19.0898 8.48043 18.7414L8.9502 18.3883V19.4504C8.9502 20.0291 9.42109 20.5 9.99984 20.5C10.5786 20.5 11.0495 20.0291 11.0495 19.4504V18.3884L11.5192 18.7413C11.9873 19.0931 12.6448 18.9909 12.989 18.5327C13.3375 18.0689 13.2442 17.4116 12.7804 17.063L11.0495 15.7624V13.0847C11.2859 12.988 11.5103 12.8582 11.7126 12.7009L14.0323 14.0402L14.2933 16.1895C14.4061 17.1191 15.5888 17.4415 16.1616 16.7104C16.3345 16.4897 16.4111 16.2148 16.3773 15.9365L16.3065 15.3532L17.2261 15.8842C17.7276 16.1739 18.3707 16.0012 18.66 15.5C18.9494 14.9987 18.7771 14.3555 18.2758 14.0661Z" fill="black"/>
<path d="M17.897 7.69529L17.3565 7.46501L18.2762 6.934C18.7786 6.64392 18.9505 6.00264 18.6604 5.50018C18.3704 4.99772 17.729 4.82577 17.2266 5.11596L16.3069 5.64693L16.3777 5.06366C16.4475 4.48776 16.0382 3.96491 15.4622 3.89503C14.8862 3.82487 14.3635 4.23456 14.2936 4.81053L14.0326 6.95978L11.7128 8.29911C11.5107 8.14189 11.2863 8.012 11.0498 7.91536V7.36396C11.0498 7.20216 10.9187 7.07099 10.7568 7.07099C10.595 7.07099 10.4639 7.20216 10.4639 7.36396V8.1204C10.4639 8.24794 10.5463 8.36079 10.6679 8.39954C10.968 8.4952 11.2502 8.65856 11.4841 8.87196C11.5784 8.9579 11.7174 8.97305 11.8281 8.90923L14.4524 7.39411C14.5322 7.34806 14.5856 7.26716 14.5967 7.17572L14.8753 4.88116C14.906 4.62854 15.1348 4.44573 15.3916 4.4767C15.6459 4.50756 15.8269 4.73842 15.796 4.99291L15.6545 6.15857C15.6411 6.26877 15.6912 6.37709 15.7838 6.4383C15.8764 6.49955 15.9957 6.5031 16.0918 6.4476L17.5197 5.62326C17.7415 5.4951 18.0248 5.571 18.153 5.79303C18.2811 6.01498 18.2052 6.2983 17.9833 6.42642L16.5556 7.25072C16.4594 7.30622 16.4029 7.4113 16.4096 7.52212C16.4163 7.63294 16.4851 7.73044 16.5872 7.77396L17.6674 8.23419C17.9026 8.33442 18.0125 8.60739 17.9123 8.84259C17.8122 9.07743 17.5409 9.18829 17.3039 9.08743L15.1775 8.18146C15.0929 8.1454 14.996 8.15118 14.9162 8.19724L14.1996 8.61099C14.0594 8.69188 14.0114 8.87106 14.0923 9.01122C14.1732 9.15137 14.3524 9.19926 14.4926 9.11844L15.0825 8.77786L17.0743 9.62653C17.6068 9.85325 18.2234 9.60727 18.4514 9.07227C18.6782 8.53993 18.4295 7.92216 17.897 7.69529Z" fill="black"/>
<path d="M9.99982 9.22339C9.29584 9.22339 8.72314 9.79608 8.72314 10.5001C8.72314 11.204 9.29584 11.7768 9.99982 11.7768C10.7038 11.7768 11.2765 11.204 11.2765 10.5001C11.2765 9.79608 10.7038 9.22339 9.99982 9.22339ZM9.99978 11.1908C9.61892 11.1908 9.30908 10.881 9.30908 10.5001C9.30908 10.1192 9.61892 9.80936 9.99978 9.80936C10.3807 9.80936 10.6905 10.1192 10.6905 10.5001C10.6905 10.8809 10.3807 11.1908 9.99978 11.1908Z" fill="black"/>
</g>
<defs>
<clipPath id="clip0_1010_1602">
<rect width="20" height="20" fill="white" transform="translate(0 0.5)"/>
</clipPath>
</defs>
</svg>
