<svg width="24" height="24" viewBox="0 0 24 24" fill="none" xmlns="http://www.w3.org/2000/svg">
<path d="M14.2654 3.53813H9.70861C9.62355 3.53813 9.54198 3.50434 9.48184 3.4442C9.4217 3.38405 9.38791 3.30248 9.38791 3.21743V1.41703C9.38791 1.24692 9.45548 1.08378 9.57577 0.963495C9.69605 0.84321 9.8592 0.775635 10.0293 0.775635H13.9447C14.1148 0.775635 14.278 0.84321 14.3982 0.963495C14.5185 1.08378 14.5861 1.24692 14.5861 1.41703V3.21743C14.5861 3.30248 14.5523 3.38405 14.4922 3.4442C14.432 3.50434 14.3505 3.53813 14.2654 3.53813ZM10.0293 2.89673H13.9447V1.41703H10.0293V2.89673Z" fill="black"/>
<path d="M15.2131 23.2245H13.6962C13.3666 23.2289 13.0459 23.1176 12.7899 22.9099C12.7469 22.8741 12.7022 22.8404 12.6558 22.8092C12.4439 22.6717 12.1941 22.6044 11.9418 22.6167C11.6895 22.629 11.4474 22.7203 11.2499 22.8778L11.2069 22.9115C10.9493 23.1138 10.6314 23.224 10.3038 23.2245H8.78693C8.31319 23.2239 7.85903 23.0354 7.52404 22.7004C7.18906 22.3655 7.0006 21.9113 7.00001 21.4376V7.88614C6.99886 7.45958 7.16272 7.0491 7.45732 6.74061L9.85999 4.21479V3.21742H10.5014V4.34435C10.5014 4.42659 10.4698 4.50569 10.4132 4.56532L7.92201 7.18413C7.74154 7.37325 7.64102 7.62473 7.6414 7.88614V21.4376C7.64174 21.7413 7.76254 22.0324 7.9773 22.2472C8.19205 22.4619 8.48322 22.5827 8.78693 22.5831H10.3035C10.4872 22.5829 10.6655 22.5211 10.8099 22.4077L10.8529 22.374C11.1561 22.1298 11.5293 21.9888 11.9182 21.9715C12.3071 21.9542 12.6913 22.0615 13.015 22.2778C13.0796 22.3214 13.1419 22.3683 13.2017 22.4182C13.3422 22.5292 13.5172 22.5875 13.6962 22.5831H15.2128C15.5165 22.5827 15.8076 22.4619 16.0224 22.2472C16.2372 22.0324 16.358 21.7413 16.3583 21.4376V7.88614C16.3587 7.62473 16.2582 7.37325 16.0777 7.18413L13.5865 4.56532C13.5299 4.50569 13.4983 4.42659 13.4983 4.34435V3.21742H14.1397V4.2164L16.5427 6.74061C16.8369 7.0487 17.0007 7.45853 17 7.88454V21.4376C16.9994 21.9113 16.811 22.3655 16.476 22.7004C16.141 23.0354 15.6868 23.2239 15.2131 23.2245Z" fill="black"/>
<path d="M7.32071 9.17502H16.6793V9.81641H7.32071V9.17502Z" fill="black"/>
<path d="M7.32071 17.4519H16.6793V18.0933H7.32071V17.4519Z" fill="black"/>
<path d="M12 16.1691C11.5749 16.1686 11.1673 15.9995 10.8667 15.6989C10.5661 15.3983 10.397 14.9908 10.3965 14.5656C10.3965 13.8174 11.4946 11.6409 11.7146 11.2121C11.7443 11.163 11.7862 11.1225 11.8361 11.0943C11.8861 11.0662 11.9425 11.0514 11.9998 11.0514C12.0572 11.0514 12.1136 11.0662 12.1636 11.0943C12.2135 11.1225 12.2554 11.163 12.2851 11.2121C12.5054 11.6409 13.6035 13.8174 13.6035 14.5656C13.603 14.9908 13.4339 15.3983 13.1333 15.6989C12.8327 15.9995 12.4251 16.1686 12 16.1691ZM12 12.0786C11.551 13.0086 11.0379 14.1898 11.0379 14.5656C11.0379 14.8208 11.1393 15.0655 11.3197 15.2459C11.5001 15.4264 11.7448 15.5277 12 15.5277C12.2552 15.5277 12.4999 15.4264 12.6803 15.2459C12.8607 15.0655 12.9621 14.8208 12.9621 14.5656C12.9621 14.1895 12.449 13.0096 12 12.0786Z" fill="black"/>
</svg>
