<svg width="20" height="21" viewBox="0 0 20 21" fill="none" xmlns="http://www.w3.org/2000/svg">
<path d="M11.888 3.44832H8.09067C8.01979 3.44832 7.95181 3.42016 7.9017 3.37004C7.85158 3.31992 7.82342 3.25195 7.82342 3.18107V1.68074C7.82342 1.53898 7.87973 1.40303 7.97997 1.30279C8.08021 1.20255 8.21616 1.14624 8.35792 1.14624H11.6207C11.7625 1.14624 11.8985 1.20255 11.9987 1.30279C12.0989 1.40303 12.1552 1.53898 12.1552 1.68074V3.18107C12.1552 3.25195 12.1271 3.31992 12.077 3.37004C12.0269 3.42016 11.9589 3.44832 11.888 3.44832ZM8.35792 2.91382H11.6207V1.68074H8.35792V2.91382Z" fill="black"/>
<path d="M12.6777 19.8536H11.4136C11.139 19.8573 10.8717 19.7645 10.6584 19.5914C10.6226 19.5616 10.5853 19.5336 10.5467 19.5075C10.3701 19.393 10.1619 19.3368 9.95166 19.3471C9.7414 19.3574 9.53969 19.4335 9.37507 19.5647L9.33926 19.5928C9.12459 19.7614 8.85964 19.8532 8.58669 19.8536H7.32261C6.92782 19.8531 6.54935 19.6961 6.2702 19.4169C5.99104 19.1378 5.834 18.7593 5.8335 18.3645V7.07166C5.83254 6.7162 5.9691 6.37413 6.2146 6.11705L8.21682 4.01221V3.18106H8.75132V4.12017C8.75133 4.1887 8.72502 4.25462 8.67782 4.30431L6.60184 6.48666C6.45145 6.64426 6.36768 6.85382 6.368 7.07166V18.3645C6.36828 18.6176 6.46895 18.8602 6.64791 19.0392C6.82687 19.2182 7.06952 19.3188 7.32261 19.3191H8.58642C8.73947 19.3189 8.88805 19.2675 9.00841 19.1729L9.04422 19.1449C9.29688 18.9414 9.60789 18.8239 9.93197 18.8095C10.2561 18.795 10.5763 18.8845 10.846 19.0647C10.8998 19.101 10.9517 19.1401 11.0015 19.1817C11.1187 19.2742 11.2645 19.3228 11.4136 19.3191H12.6775C12.9306 19.3188 13.1732 19.2182 13.3522 19.0392C13.5311 18.8602 13.6318 18.6176 13.6321 18.3645V7.07166C13.6324 6.85382 13.5486 6.64426 13.3982 6.48666L11.3222 4.30431C11.275 4.25462 11.2487 4.1887 11.2488 4.12017V3.18106H11.7832V4.01354L13.7857 6.11705C14.0309 6.3738 14.1674 6.71532 14.1668 7.07033V18.3645C14.1663 18.7593 14.0093 19.1378 13.7301 19.4169C13.451 19.6961 13.0725 19.8531 12.6777 19.8536Z" fill="black"/>
<path d="M6.10075 8.14573H13.8996V8.68022H6.10075V8.14573Z" fill="black"/>
<path d="M6.10075 15.0431H13.8996V15.5776H6.10075V15.0431Z" fill="black"/>
<path d="M10.0002 13.9742C9.6459 13.9737 9.30627 13.8328 9.05577 13.5823C8.80527 13.3318 8.66435 12.9922 8.66392 12.6379C8.66392 12.0144 9.57898 10.2006 9.76232 9.84329C9.78708 9.80242 9.82197 9.76861 9.86361 9.74516C9.90525 9.72169 9.95224 9.70937 10 9.70937C10.0478 9.70937 10.0948 9.72169 10.1365 9.74516C10.1781 9.76861 10.213 9.80242 10.2377 9.84329C10.4213 10.2006 11.3364 12.0144 11.3364 12.6379C11.336 12.9922 11.1951 13.3318 10.9446 13.5823C10.6941 13.8328 10.3544 13.9737 10.0002 13.9742ZM10.0002 10.5654C9.62602 11.3404 9.19842 12.3247 9.19842 12.6379C9.19842 12.8505 9.28289 13.0545 9.43325 13.2048C9.5836 13.3552 9.78753 13.4397 10.0002 13.4397C10.2128 13.4397 10.4167 13.3552 10.5671 13.2048C10.7174 13.0545 10.8019 12.8505 10.8019 12.6379C10.8019 12.3244 10.3743 11.3412 10.0002 10.5654Z" fill="black"/>
</svg>
