<svg width="20" height="21" viewBox="0 0 20 21" fill="none" xmlns="http://www.w3.org/2000/svg">
<g clip-path="url(#clip0_849_1583)">
<path d="M3.99984 20.501H15.3332C15.5984 20.501 15.8527 20.3956 16.0403 20.2081C16.2278 20.0205 16.3332 19.7662 16.3332 19.501V18.3483C16.7088 18.1125 17.0247 17.7929 17.256 17.4146C17.4873 17.0362 17.6278 16.6094 17.6665 16.1676V14.2146C17.6668 13.9401 17.5991 13.6699 17.4696 13.4279C17.3401 13.1859 17.1527 12.9797 16.9242 12.8276L16.1998 12.3436C16.0459 12.2417 15.9234 12.0989 15.846 11.9313C15.7686 11.7637 15.7393 11.5779 15.7615 11.3946L16.1815 7.82529C16.2898 6.90566 16.2021 5.97353 15.9242 5.09023C15.6464 4.20692 15.1846 3.39248 14.5693 2.70048C13.954 2.00848 13.1991 1.45463 12.3544 1.07536C11.5096 0.696087 10.5942 0.5 9.66817 0.5C8.74219 0.5 7.8267 0.696087 6.98196 1.07536C6.13721 1.45463 5.38236 2.00848 4.76706 2.70048C4.15177 3.39248 3.68999 4.20692 3.41211 5.09023C3.13423 5.97353 3.04655 6.90566 3.15484 7.82529L3.57484 11.3946C3.59701 11.5779 3.56775 11.7637 3.49034 11.9313C3.41292 12.0989 3.29041 12.2417 3.1365 12.3436L2.40884 12.8276C2.18031 12.9797 1.99293 13.1859 1.86341 13.4279C1.73389 13.6699 1.66625 13.9401 1.6665 14.2146V16.1676C1.70516 16.6094 1.84567 17.0362 2.07701 17.4146C2.30835 17.7929 2.62422 18.1125 2.99984 18.3483V19.501C2.99984 19.7662 3.10519 20.0205 3.29273 20.2081C3.48027 20.3956 3.73462 20.501 3.99984 20.501ZM15.6665 19.501C15.6665 19.5894 15.6314 19.6742 15.5689 19.7367C15.5064 19.7992 15.4216 19.8343 15.3332 19.8343H3.99984C3.91143 19.8343 3.82665 19.7992 3.76414 19.7367C3.70162 19.6742 3.6665 19.5894 3.6665 19.501V18.7066C4.51556 19.0373 5.42238 19.1941 6.33317 19.1676H12.9998C13.9106 19.1941 14.8175 19.0373 15.6665 18.7066V19.501ZM2.33317 16.1676V14.2146C2.33276 14.0497 2.37322 13.8873 2.45093 13.7419C2.52865 13.5965 2.64119 13.4726 2.7785 13.3813L3.5045 12.897C3.76088 12.727 3.96499 12.4891 4.09406 12.2099C4.22314 11.9306 4.27211 11.6211 4.2355 11.3156L3.8155 7.74596C3.71835 6.91991 3.7972 6.08265 4.04688 5.28927C4.29655 4.49589 4.7114 3.76436 5.26411 3.14283C5.81682 2.5213 6.49488 2.02384 7.25366 1.6832C8.01245 1.34255 8.83476 1.16643 9.6665 1.16643C10.4982 1.16643 11.3206 1.34255 12.0793 1.6832C12.8381 2.02384 13.5162 2.5213 14.0689 3.14283C14.6216 3.76436 15.0365 4.49589 15.2861 5.28927C15.5358 6.08265 15.6147 6.91991 15.5175 7.74596L15.0975 11.3156C15.0609 11.6211 15.1099 11.9306 15.2389 12.2099C15.368 12.4891 15.5721 12.727 15.8285 12.897L16.5545 13.3813C16.6918 13.4726 16.8044 13.5965 16.8821 13.7419C16.9598 13.8873 17.0003 14.0497 16.9998 14.2146V16.1676C16.9998 16.191 16.9542 18.501 12.9998 18.501H6.33317C2.41284 18.501 2.33317 16.2606 2.33317 16.1676Z" fill="black"/>
<path d="M7.33316 14.8343C7.33316 15.0111 7.4034 15.1807 7.52842 15.3057C7.65345 15.4307 7.82302 15.501 7.99983 15.501V16.501C7.91142 16.501 7.82664 16.5361 7.76413 16.5986C7.70161 16.6611 7.6665 16.7459 7.6665 16.8343C7.6665 16.9227 7.70161 17.0075 7.76413 17.07C7.82664 17.1325 7.91142 17.1676 7.99983 17.1676H11.3332C11.4216 17.1676 11.5064 17.1325 11.5689 17.07C11.6314 17.0075 11.6665 16.9227 11.6665 16.8343C11.6665 16.7459 11.6314 16.6611 11.5689 16.5986C11.5064 16.5361 11.4216 16.501 11.3332 16.501V15.501C11.51 15.501 11.6795 15.4307 11.8046 15.3057C11.9296 15.1807 11.9998 15.0111 11.9998 14.8343H14.4518L14.6805 15.5966C14.7011 15.6653 14.7433 15.7255 14.8008 15.7684C14.8583 15.8112 14.9281 15.8343 14.9998 15.8343C15.0322 15.8342 15.0644 15.8295 15.0955 15.8203C15.1374 15.8077 15.1765 15.787 15.2104 15.7594C15.2444 15.7317 15.2725 15.6977 15.2933 15.6591C15.3141 15.6206 15.327 15.5783 15.3315 15.5348C15.3359 15.4912 15.3317 15.4472 15.3192 15.4053L14.3192 12.072C14.2938 11.9873 14.2358 11.9161 14.158 11.8742C14.0802 11.8322 13.9889 11.8229 13.9042 11.8483C13.8195 11.8737 13.7483 11.9316 13.7064 12.0095C13.6644 12.0873 13.6551 12.1786 13.6805 12.2633L13.7518 12.501H11.9072C11.8702 12.4374 11.8229 12.3804 11.7672 12.3323L14.1038 6.83429H14.3332C14.4216 6.83429 14.5064 6.79917 14.5689 6.73666C14.6314 6.67415 14.6665 6.58936 14.6665 6.50096C14.6665 6.41255 14.6314 6.32777 14.5689 6.26525C14.5064 6.20274 14.4216 6.16762 14.3332 6.16762H11.6665C11.5781 6.16762 11.4933 6.20274 11.4308 6.26525C11.3683 6.32777 11.3332 6.41255 11.3332 6.50096C11.3332 6.58936 11.3683 6.67415 11.4308 6.73666C11.4933 6.79917 11.5781 6.83429 11.6665 6.83429H11.7125L9.6665 11.6486L7.6205 6.83429H7.6665C7.7549 6.83429 7.83969 6.79917 7.9022 6.73666C7.96471 6.67415 7.99983 6.58936 7.99983 6.50096C7.99983 6.41255 7.96471 6.32777 7.9022 6.26525C7.83969 6.20274 7.7549 6.16762 7.6665 6.16762H4.99983C4.91142 6.16762 4.82664 6.20274 4.76413 6.26525C4.70161 6.32777 4.6665 6.41255 4.6665 6.50096C4.6665 6.58936 4.70161 6.67415 4.76413 6.73666C4.82664 6.79917 4.91142 6.83429 4.99983 6.83429H5.22916L7.5665 12.3323C7.51079 12.3804 7.46348 12.4374 7.4265 12.501H5.58116L5.6525 12.2633C5.67787 12.1786 5.66856 12.0873 5.62661 12.0095C5.58467 11.9316 5.51352 11.8737 5.42883 11.8483C5.34414 11.8229 5.25283 11.8322 5.17501 11.8742C5.09718 11.9161 5.0392 11.9873 5.01383 12.072L4.01383 15.4053C4.00126 15.4472 3.99708 15.4912 4.00152 15.5348C4.00596 15.5783 4.01894 15.6206 4.03971 15.6591C4.06047 15.6977 4.08863 15.7317 4.12257 15.7594C4.15651 15.787 4.19556 15.8077 4.2375 15.8203C4.26852 15.8296 4.30076 15.8344 4.33316 15.8343C4.40487 15.8343 4.47467 15.8112 4.5322 15.7684C4.58973 15.7255 4.63191 15.6653 4.6525 15.5966L4.88116 14.8343H7.33316ZM10.6665 16.501H8.6665V15.501H10.6665V16.501ZM7.99983 14.8343V12.8343H11.3332V14.8343H7.99983ZM14.2518 14.1676H11.9998V13.1676H13.9518L14.2518 14.1676ZM13.3792 6.83429L11.1125 12.1676H10.1705L12.4372 6.83429H13.3792ZM6.89583 6.83429L9.1625 12.1676H8.2205L5.95383 6.83429H6.89583ZM7.33316 13.1676V14.1676H5.08116L5.38116 13.1676H7.33316Z" fill="black"/>
<path d="M9.99985 13.501H9.33319C9.24478 13.501 9.16 13.5361 9.09748 13.5986C9.03497 13.6611 8.99985 13.7459 8.99985 13.8343C8.99985 13.9227 9.03497 14.0075 9.09748 14.07C9.16 14.1325 9.24478 14.1676 9.33319 14.1676H9.99985C10.0883 14.1676 10.173 14.1325 10.2356 14.07C10.2981 14.0075 10.3332 13.9227 10.3332 13.8343C10.3332 13.7459 10.2981 13.6611 10.2356 13.5986C10.173 13.5361 10.0883 13.501 9.99985 13.501Z" fill="black"/>
</g>
<defs>
<clipPath id="clip0_849_1583">
<rect width="20" height="20" fill="white" transform="translate(0 0.5)"/>
</clipPath>
</defs>
</svg>
