<svg width="24" height="25" viewBox="0 0 24 25" fill="none" xmlns="http://www.w3.org/2000/svg">
<g clip-path="url(#clip0_712_633)">
<path d="M23.8603 2.37892C23.755 2.29402 23.612 2.27252 23.4865 2.32236L18.7057 4.22235C12.6526 6.6278 6.39342 9.11522 0.23665 11.5596C0.0946838 11.616 0.00104732 11.7529 7.96274e-06 11.9056C-0.00098415 12.0584 0.0908099 12.1965 0.231973 12.2548C2.04026 13.0006 3.84898 13.7454 5.65769 14.4902L6.46022 14.8206L9.84762 22.8089C9.90691 22.9486 10.0436 23.0375 10.1927 23.0375C10.207 23.0375 10.2213 23.0366 10.2357 23.035C10.3434 23.0226 10.4369 22.9644 10.4972 22.8803C10.5003 22.8763 10.5038 22.8728 10.5069 22.8687L14.1398 17.9832C16.2995 18.8727 18.4591 19.7625 20.6192 20.6511C20.6651 20.6699 20.7135 20.6793 20.7619 20.6793C20.8253 20.6793 20.8884 20.6632 20.9451 20.6315C21.045 20.5755 21.114 20.477 21.1321 20.3639L21.5208 17.9508C22.3244 12.9613 23.1553 7.80194 23.9949 2.73211C24.0171 2.59879 23.9657 2.46381 23.8603 2.37892ZM1.37465 11.9147C7.25325 9.58052 13.2114 7.21277 18.9826 4.91929L22.2213 3.63224C19.9713 5.11563 17.0366 7.11536 14.1863 9.05744C11.3658 10.9793 8.69781 12.7972 6.70489 14.1102L5.94328 13.7966C4.42034 13.1696 2.8974 12.5424 1.37465 11.9147ZM14.6086 9.67727C16.7998 8.18424 19.0409 6.65719 20.9804 5.35823L11.0067 16.1456C10.9577 16.1986 10.9251 16.2647 10.9126 16.3359L10.0415 21.3448L7.21267 14.6738C9.19977 13.3628 11.8305 11.5702 14.6086 9.67727ZM10.8325 21.1741L11.5713 16.9256C12.189 17.1801 12.8067 17.4341 13.4244 17.6886L10.8325 21.1741ZM20.7805 17.8316L20.467 19.7774C17.6187 18.6055 14.7708 17.4325 11.923 16.2593L22.9751 4.3056C22.2307 8.82741 21.4947 13.3967 20.7805 17.8316Z" fill="white"/>
</g>
<defs>
<clipPath id="clip0_712_633">
<rect width="24" height="24" fill="white" transform="translate(0 0.666504)"/>
</clipPath>
</defs>
</svg>
