<svg width="17" height="17" viewBox="0 0 17 17" fill="none" xmlns="http://www.w3.org/2000/svg">
    <path d="M5.36781 11.1407C5.10364 10.8479 4.90516 10.6155 4.69334 10.3985C4.59992 10.3029 4.60505 10.2562 4.69334 10.1594C5.834 8.92229 6.9718 7.68215 8.10675 6.43902C8.41713 6.10023 8.72271 5.75769 9.03822 5.42301C9.6439 4.77754 10.3639 4.55304 11.1728 4.82871C11.9818 5.10438 12.4783 5.72258 12.6392 6.62654C12.7805 7.42142 12.5584 8.11657 12.0355 8.68734C11.1287 9.67758 10.215 10.6607 9.30479 11.6472C7.96577 13.0992 6.63086 14.556 5.28603 15.9989C4.43053 16.9189 3.3971 17.2148 2.25245 16.8446C1.07529 16.4644 0.339913 15.566 0.0812117 14.2609C-0.167565 13.008 0.160944 11.9076 0.988033 10.9999C3.25725 8.51289 5.53047 6.03038 7.80767 3.55234C8.48112 2.81747 9.15468 2.08285 9.82835 1.34848C10.6838 0.420238 11.7248 -0.0280057 12.9273 0.000383048C13.9518 0.0221623 14.9327 0.457017 15.681 1.22118C16.4293 1.98534 16.8921 3.02474 16.9803 4.13916C17.0952 5.54403 16.7137 6.77782 15.8048 7.77964C13.5778 10.2334 11.3333 12.6685 9.09571 15.111C9.07911 15.1269 9.06174 15.1417 9.04369 15.1555C8.82913 14.9172 8.61731 14.6733 8.39625 14.4402C8.3196 14.3595 8.34492 14.3225 8.40652 14.2553C10.1047 12.404 11.8021 10.5514 13.4988 8.69742C13.9987 8.15168 14.5079 7.61604 14.9965 7.05872C15.85 6.08753 16.1022 4.92508 15.7607 3.64722C15.4212 2.37719 14.6355 1.55541 13.4382 1.28385C12.312 1.02835 11.3104 1.3552 10.4884 2.23899C9.2295 3.59305 7.98664 4.9658 6.7366 6.32883C5.0555 8.16389 3.37372 9.99832 1.69125 11.8321C1.26658 12.2935 0.981874 12.8198 0.966817 13.485C0.943206 14.5033 1.40894 15.2126 2.22234 15.6258C3.03574 16.0389 3.83066 15.9052 4.49145 15.2421C5.16284 14.5698 5.7894 13.844 6.43444 13.1403C8.03136 11.3971 9.62828 9.65479 11.2252 7.91337C11.5174 7.59474 11.6529 7.22345 11.538 6.77931C11.425 6.34415 11.1571 6.06213 10.755 5.95455C10.3813 5.85481 10.0583 5.98032 9.78763 6.27205C8.9554 7.16854 8.11805 8.05793 7.29472 8.96151C6.6466 9.67384 6.01764 10.4041 5.36781 11.1407Z" fill="#808080"/>
</svg>
