<svg width="21" height="20" viewBox="0 0 21 20" fill="none" xmlns="http://www.w3.org/2000/svg">
<g clip-path="url(#clip0_244_2905)">
<path d="M20.4399 5.87708C20.3912 4.81262 20.2221 4.08569 19.9749 3.44971C19.7239 2.78244 19.3303 2.17804 18.8215 1.67847C18.3221 1.16974 17.7176 0.775909 17.0503 0.52475C16.4142 0.27771 15.6874 0.108795 14.6229 0.0604248C13.5565 0.0115967 13.2158 0 10.5 0C7.78424 0 7.44351 0.0115967 6.37708 0.0601196C5.31262 0.108795 4.58585 0.277863 3.94971 0.525055C3.28244 0.776062 2.67804 1.16974 2.17847 1.67847C1.66974 2.17789 1.27591 2.78229 1.02475 3.44955C0.77771 4.08569 0.608795 4.81262 0.560425 5.87692C0.511597 6.94351 0.5 7.28409 0.5 9.99985C0.5 12.7158 0.511597 13.0565 0.560425 14.1229C0.608948 15.1872 0.778015 15.9142 1.02521 16.5503C1.27621 17.2174 1.66989 17.822 2.17862 18.3214C2.67804 18.8301 3.28259 19.2238 3.94986 19.4748C4.58585 19.7221 5.31277 19.8911 6.37723 19.9397C7.44382 19.9884 7.78439 19.9998 10.5002 19.9998C13.2159 19.9998 13.5566 19.9884 14.6231 19.9397C15.6875 19.8911 16.4143 19.7221 17.0504 19.4748C18.3937 18.9554 19.4555 17.8935 19.9749 16.5503C20.2223 15.9142 20.3912 15.1872 20.4399 14.1229C20.4884 13.0563 20.5 12.7158 20.5 10C20.5 7.28409 20.4884 6.94351 20.4399 5.87708ZM18.6398 14.041C18.5954 15.016 18.4324 15.5455 18.2956 15.8978C17.9591 16.77 17.2699 17.4593 16.3977 17.7957C16.0453 17.9326 15.5159 18.0956 14.5408 18.14C13.4866 18.1882 13.1703 18.1982 10.5 18.1982C7.82956 18.1982 7.5134 18.1882 6.45901 18.14C5.48413 18.0956 4.95465 17.9326 4.60217 17.7957C4.16791 17.6353 3.77499 17.3798 3.45242 17.0476C3.12024 16.725 2.86465 16.3322 2.70428 15.8978C2.56741 15.5455 2.40445 15.016 2.36005 14.041C2.31198 12.9866 2.30176 12.6703 2.30176 10.0002C2.30176 7.32986 2.31198 7.0137 2.36005 5.95917C2.4046 4.98413 2.56741 4.45465 2.70428 4.10233C2.86465 3.66791 3.12039 3.27499 3.45242 2.95242C3.77499 2.62024 4.16791 2.36465 4.60233 2.20444C4.95465 2.06741 5.48413 1.9046 6.45917 1.86005C7.51355 1.81198 7.82986 1.80176 10.5 1.80176H10.4998C13.17 1.80176 13.4863 1.81198 14.5408 1.8602C15.5159 1.9046 16.0452 2.06757 16.3977 2.20444C16.8319 2.36481 17.2249 2.62039 17.5474 2.95242C17.8796 3.27499 18.1352 3.66791 18.2954 4.10233C18.4324 4.45465 18.5954 4.98413 18.6398 5.95917C18.6879 7.01355 18.6981 7.32986 18.6981 10C18.6981 12.6703 18.688 12.9865 18.6398 14.041Z" fill="#808080"/>
<path d="M10.5003 4.86481C7.66428 4.86481 5.36523 7.164 5.36523 10C5.36523 12.836 7.66428 15.135 10.5003 15.135C13.3364 15.135 15.6355 12.836 15.6355 10C15.6355 7.164 13.3364 4.86481 10.5003 4.86481ZM10.5003 13.3333C8.65945 13.3331 7.16699 11.8408 7.16714 9.99985C7.16714 8.15903 8.65945 6.66656 10.5004 6.66656C12.3414 6.66672 13.8337 8.15903 13.8337 9.99985C13.8337 11.8408 12.3412 13.3333 10.5003 13.3333Z" fill="#808080"/>
<path d="M17.0378 4.66202C17.0378 5.32471 16.5005 5.86197 15.8378 5.86197C15.175 5.86197 14.6377 5.32471 14.6377 4.66202C14.6377 3.99918 15.175 3.46191 15.8378 3.46191C16.5005 3.46191 17.0378 3.99918 17.0378 4.66202Z" fill="#808080"/>
</g>
<defs>
<clipPath id="clip0_244_2905">
<rect width="20" height="20" fill="white" transform="translate(0.5)"/>
</clipPath>
</defs>
</svg>
