<svg width="21" height="20" viewBox="0 0 21 20" fill="none" xmlns="http://www.w3.org/2000/svg">
<g clip-path="url(#clip0_244_2907)">
<path d="M2.77053 17.5H18.2295C19.4828 17.4986 20.4986 16.485 20.5 15.2341V4.76586C20.4986 3.51512 19.4828 2.50136 18.2295 2.5H2.77053C1.51721 2.50136 0.501359 3.51512 0.5 4.76586V15.2341C0.501359 16.485 1.51721 17.4986 2.77053 17.5ZM2.77053 16.8251C2.42165 16.8255 2.08228 16.711 1.80525 16.4992L6.42844 11.7802C6.51419 11.6942 6.54695 11.5688 6.51449 11.4521C6.48204 11.3352 6.38934 11.2448 6.27159 11.2151C6.15368 11.1853 6.02899 11.2208 5.94475 11.3085L1.36473 15.9835C1.24094 15.7532 1.17618 15.4957 1.17633 15.2341V5.50979L9.03548 12.1508C9.88164 12.8696 11.1256 12.8693 11.9712 12.1495L19.8237 5.50331V15.2341C19.824 15.4967 19.7588 15.755 19.6341 15.9859L15.0266 11.3076C14.8954 11.1759 14.6824 11.1746 14.5495 11.3046C14.4168 11.4351 14.4144 11.6476 14.5442 11.7807L19.1928 16.5007C18.9161 16.7115 18.5776 16.8255 18.2295 16.8251H2.77053ZM2.77053 3.17494H18.2295C19.0543 3.17614 19.7425 3.80407 19.817 4.62409L11.5338 11.6348C10.9401 12.1401 10.0666 12.1404 9.47252 11.6356L1.18267 4.63057C1.25362 3.80799 1.94309 3.17614 2.77053 3.17494Z" fill="#808080"/>
</g>
<defs>
<clipPath id="clip0_244_2907">
<rect width="20" height="20" fill="white" transform="translate(0.5)"/>
</clipPath>
</defs>
</svg>
