<svg width="21" height="20" viewBox="0 0 21 20" fill="none" xmlns="http://www.w3.org/2000/svg">
<g clip-path="url(#clip0_244_2906)">
<path d="M0.753906 6.68686H5.04117V19.5856H0.753906V6.68686Z" fill="#808080"/>
<path d="M2.92538 0.46875C1.45886 0.46875 0.5 1.43173 0.5 2.69745C0.5 3.93524 1.43033 4.92569 2.86908 4.92569H2.897C4.39221 4.92569 5.32269 3.93524 5.32269 2.69745C5.29477 1.43173 4.39221 0.46875 2.92538 0.46875Z" fill="#808080"/>
<path d="M15.5643 6.38412C13.2896 6.38412 12.2703 7.63428 11.7005 8.51334V6.68686H7.41309V19.5856H11.7003V12.3824C11.7003 11.9968 11.7283 11.6118 11.8415 11.3361C12.1514 10.5659 12.8568 9.76822 14.0412 9.76822C15.5926 9.76822 16.2131 10.9511 16.2131 12.6851V19.5856H20.5001V12.1896C20.5001 8.22769 18.3849 6.38412 15.5643 6.38412Z" fill="#808080"/>
</g>
<defs>
<clipPath id="clip0_244_2906">
<rect width="20" height="20" fill="white" transform="translate(0.5)"/>
</clipPath>
</defs>
</svg>
