<svg width="21" height="20" viewBox="0 0 21 20" fill="none" xmlns="http://www.w3.org/2000/svg">
<g clip-path="url(#clip0_244_2904)">
<path d="M19.396 -9.1833e-07H1.60306C0.993774 0.000304257 0.499847 0.494536 0.5 1.10397V18.8969C0.500305 19.5062 0.994537 20.0002 1.60397 20H19.396C20.0056 20.0002 20.4998 19.5061 20.5 18.8965C20.5 18.8963 20.5 18.8962 20.5 18.896V1.10306C20.4997 0.493773 20.0055 -0.000153506 19.396 -9.1833e-07V-9.1833e-07Z" fill="#808080"/>
<path d="M14.3086 20V12.2656H16.916L17.3066 9.23828H14.3086V7.31018C14.3086 6.4357 14.5514 5.83984 15.8053 5.83984H17.3945V3.1395C17.118 3.10272 16.1694 3.02048 15.0656 3.02048C12.7609 3.02048 11.1836 4.42673 11.1836 7.01035V9.23828H8.58594V12.2656H11.1836V20H14.3086Z" fill="white"/>
</g>
<defs>
<clipPath id="clip0_244_2904">
<rect width="20" height="20" fill="white" transform="translate(0.5)"/>
</clipPath>
</defs>
</svg>
