<svg width="24" height="24" viewBox="0 0 24 24" fill="none" xmlns="http://www.w3.org/2000/svg">
<g clip-path="url(#clip0_618_1366)">
<path d="M12 22C6.5 22 2 17.5 2 12C2 6.5 6.5 2 12 2C17.5 2 22 6.5 22 12C22 17.5 17.5 22 12 22ZM12 3C7 3 3 7 3 12C3 17 7 21 12 21C17 21 21 17 21 12C21 7 17 3 12 3Z" fill="black"/>
<path d="M12 5C11.7 5 11.5 4.8 11.5 4.5V0.5C11.5 0.2 11.7 0 12 0C12.3 0 12.5 0.2 12.5 0.5V4.5C12.5 4.8 12.3 5 12 5Z" fill="black"/>
<path d="M12 5C11.7 5 11.5 4.8 11.5 4.5V0.5C11.5 0.2 11.7 0 12 0C12.3 0 12.5 0.2 12.5 0.5V4.5C12.5 4.8 12.3 5 12 5Z" fill="black"/>
<path d="M23.5 12.5H19.5C19.2 12.5 19 12.3 19 12C19 11.7 19.2 11.5 19.5 11.5H23.5C23.8 11.5 24 11.7 24 12C24 12.3 23.8 12.5 23.5 12.5Z" fill="black"/>
<path d="M12 24C11.7 24 11.5 23.8 11.5 23.5V19.5C11.5 19.2 11.7 19 12 19C12.3 19 12.5 19.2 12.5 19.5V23.5C12.5 23.8 12.3 24 12 24Z" fill="black"/>
<path d="M4.5 12.5H0.5C0.2 12.5 0 12.3 0 12C0 11.7 0.2 11.5 0.5 11.5H4.5C4.8 11.5 5 11.7 5 12C5 12.3 4.8 12.5 4.5 12.5Z" fill="black"/>
<path d="M12 15C10.3 15 9 13.7 9 12C9 10.3 10.3 9 12 9C13.7 9 15 10.3 15 12C15 13.7 13.7 15 12 15ZM12 10C10.9 10 10 10.9 10 12C10 13.1 10.9 14 12 14C13.1 14 14 13.1 14 12C14 10.9 13.1 10 12 10Z" fill="black"/>
</g>
<defs>
<clipPath id="clip0_618_1366">
<rect width="24" height="24" fill="white"/>
</clipPath>
</defs>
</svg>
