<svg width="20" height="20" viewBox="0 0 20 20" fill="none" xmlns="http://www.w3.org/2000/svg">
<g clip-path="url(#clip0_735_1805)">
<path d="M10.0001 0C7.16483 0 4.85835 2.30648 4.85835 5.1417C4.85835 6.7753 5.61139 8.27611 6.92475 9.25951L7.48426 9.67854L6.8203 9.89717C5.61746 10.2931 4.51544 10.8988 3.54458 11.6972C1.75673 13.168 0.513813 15.2186 0.0449865 17.4721C-0.0849731 18.0955 0.0704927 18.736 0.471303 19.2291C0.869684 19.7194 1.46078 20.0004 2.09276 20.0004H4.95957C5.20532 20.0004 5.40491 19.8008 5.40491 19.5551C5.40491 19.3093 5.20532 19.1097 4.95957 19.1097H2.09276C1.596 19.1097 1.29681 18.8324 1.1624 18.6672C0.931627 18.383 0.842153 18.0138 0.917052 17.6538C1.34013 15.6219 2.46078 13.7656 4.07333 12.4271C5.68305 11.0907 7.71139 10.3279 9.78548 10.2798H9.80775C9.87981 10.2826 9.94297 10.2838 10.0005 10.2838C10.058 10.2838 10.1219 10.2826 10.1948 10.2798H10.2167C11.264 10.3036 12.2883 10.5008 13.2612 10.866C13.3725 10.9081 13.4936 10.9036 13.6017 10.8547C13.7102 10.8057 13.7928 10.717 13.8345 10.6057C13.8762 10.4943 13.8721 10.3733 13.8231 10.2652C13.7741 10.1571 13.6855 10.0741 13.5741 10.0324C13.4499 9.98583 13.3223 9.94089 13.1835 9.89514L12.5203 9.67652L13.079 9.25749C14.3899 8.27409 15.1422 6.77409 15.1422 5.14211C15.1418 2.30648 12.8353 0 10.0001 0ZM10.2069 9.38745H10.1831C10.0612 9.38583 9.93892 9.38542 9.81706 9.38745H9.79317C7.52556 9.27733 5.74944 7.41255 5.74944 5.1413C5.74944 2.87004 7.65592 0.890688 10.0001 0.890688C12.3442 0.890688 14.2511 2.79757 14.2511 5.1417C14.2511 7.48583 12.4746 9.27814 10.2069 9.38745Z" fill="white"/>
<path d="M13.5219 18.8648C13.8057 19.5526 14.4656 19.9984 15.2032 20H17.7631C18.4826 20 19.1328 19.5741 19.4202 18.915C19.6862 18.3053 20.0024 17.3583 20 16.3093C19.9976 15.2644 19.6789 14.3332 19.4117 13.736C19.1235 13.0915 18.472 12.6737 17.7526 12.6721H15.2231C14.4644 12.6721 13.8028 13.1174 13.5376 13.8073C13.5028 13.898 13.4498 14.0381 13.3943 14.2044L13.3113 14.4534H7.74696C7.62712 14.4534 7.51093 14.5028 7.42752 14.5887L6.03684 16.0215C5.86963 16.1935 5.87044 16.4729 6.03886 16.6437L7.45586 18.0854C7.53886 18.17 7.65465 18.2186 7.77368 18.2186H10.4053C10.651 18.2186 10.8506 18.019 10.8506 17.7733C10.8506 17.5275 10.651 17.3279 10.4053 17.3279H7.96032L6.97894 16.3295L7.93562 15.3441H13.6563C13.8619 15.3441 14.0401 15.2044 14.0887 15.0049C14.1579 14.7219 14.2445 14.451 14.3692 14.1267C14.5008 13.7842 14.8368 13.5627 15.2251 13.5627H17.7518C18.1271 13.5636 18.4514 13.7692 18.5988 14.0996C18.8303 14.6182 19.1073 15.4231 19.1093 16.3117C19.1113 17.2061 18.8356 18.0275 18.6036 18.5591C18.4579 18.8931 18.1271 19.1093 17.7611 19.1093H15.204C14.8336 19.1085 14.4887 18.8737 14.3449 18.5251C14.2429 18.2777 14.155 17.998 14.0765 17.6696C14.0275 17.4656 13.8445 17.3279 13.6433 17.3279C13.6089 17.3279 13.5745 17.332 13.5397 17.3401C13.4239 17.3676 13.3259 17.4389 13.2636 17.5401C13.2012 17.6413 13.1822 17.7611 13.2101 17.8765C13.2996 18.2506 13.4016 18.5737 13.5214 18.8644L13.5219 18.8648Z" fill="white"/>
<path d="M17.085 16.7611C17.3309 16.7611 17.5303 16.5617 17.5303 16.3158C17.5303 16.0698 17.3309 15.8704 17.085 15.8704C16.839 15.8704 16.6396 16.0698 16.6396 16.3158C16.6396 16.5617 16.839 16.7611 17.085 16.7611Z" fill="white"/>
</g>
<defs>
<clipPath id="clip0_735_1805">
<rect width="20" height="20" fill="white"/>
</clipPath>
</defs>
</svg>
