<svg width="24" height="24" viewBox="0 0 24 24" fill="none" xmlns="http://www.w3.org/2000/svg">
<path d="M20.1358 2.12458H7.82587C7.70118 0.939959 6.69553 0.0134277 5.47692 0.0134277C4.17445 0.0134277 3.11475 1.07191 3.11475 2.37293V21.6259C3.11475 22.925 4.17145 23.982 5.47129 23.9851C5.47331 23.9852 5.47495 23.9863 5.47692 23.9863H17.4001C17.8132 23.9863 18.1492 23.6502 18.1492 23.2371V21.8743H20.1358C20.5489 21.8743 20.8849 21.5382 20.8849 21.1251V2.87374C20.8849 2.46063 20.5489 2.12458 20.1358 2.12458ZM3.61415 20.1748V2.37297C3.61415 1.3473 4.44975 0.512881 5.47692 0.512881C6.50282 0.512881 7.33753 1.34524 7.33964 2.36922C7.33959 2.37101 7.33861 2.37251 7.33861 2.37433V20.1736C6.90239 19.6166 6.21136 19.2638 5.47696 19.2638C4.74004 19.2638 4.04836 19.6189 3.61415 20.1748ZM17.6498 23.2372C17.6498 23.3749 17.5377 23.4869 17.4001 23.4869H5.48114C5.47964 23.4868 5.47842 23.486 5.47692 23.486C4.44975 23.486 3.61415 22.6517 3.61415 21.6259C3.61415 20.5988 4.44975 19.7632 5.47692 19.7632C6.49593 19.7632 7.32548 20.5859 7.33856 21.6019V21.6246C7.33856 21.7619 7.45115 21.8756 7.58948 21.8756C7.6184 21.8756 17.6139 21.8743 17.6497 21.8743L17.6498 23.2372ZM20.3855 21.1252C20.3855 21.2628 20.2734 21.3749 20.1358 21.3749H7.83923V2.62404H20.1358C20.2734 2.62404 20.3855 2.73612 20.3855 2.87374V21.1252Z" fill="black"/>
<path d="M19.1369 3.6229H9.08662C8.94872 3.6229 8.83692 3.73469 8.83692 3.8726C8.83692 4.01051 8.94872 4.1223 9.08662 4.1223H19.1369C19.2748 4.1223 19.3866 4.01051 19.3866 3.8726C19.3866 3.73469 19.2748 3.6229 19.1369 3.6229Z" fill="black"/>
<path d="M9.58603 10.0327H14.061C14.4742 10.0327 14.8102 9.69668 14.8102 9.28357V5.87032C14.8102 5.45721 14.4742 5.12116 14.061 5.12116H9.58603C9.17292 5.12116 8.83687 5.45721 8.83687 5.87032V9.28357C8.83687 9.69668 9.17292 10.0327 9.58603 10.0327ZM9.33632 5.87037C9.33632 5.73269 9.4484 5.62066 9.58603 5.62066H14.061C14.1987 5.62066 14.3107 5.73274 14.3107 5.87037V9.28362C14.3107 9.42129 14.1987 9.53332 14.061 9.53332H9.58603C9.44836 9.53332 9.33632 9.42124 9.33632 9.28362V5.87037Z" fill="black"/>
<path d="M16.0577 5.59966H19.1368C19.2747 5.59966 19.3865 5.48787 19.3865 5.34996C19.3865 5.21205 19.2747 5.10026 19.1368 5.10026H16.0577C15.9198 5.10026 15.808 5.21205 15.808 5.34996C15.808 5.48787 15.9198 5.59966 16.0577 5.59966Z" fill="black"/>
<path d="M16.0577 7.07796H19.1368C19.2747 7.07796 19.3865 6.96616 19.3865 6.82826C19.3865 6.69035 19.2747 6.57855 19.1368 6.57855H16.0577C15.9198 6.57855 15.808 6.69035 15.808 6.82826C15.808 6.96616 15.9198 7.07796 16.0577 7.07796Z" fill="black"/>
<path d="M16.0577 8.55626H19.1368C19.2747 8.55626 19.3865 8.44446 19.3865 8.30655C19.3865 8.16865 19.2747 8.05685 19.1368 8.05685H16.0577C15.9198 8.05685 15.808 8.16865 15.808 8.30655C15.808 8.44446 15.9198 8.55626 16.0577 8.55626Z" fill="black"/>
<path d="M16.0577 10.0321H19.1368C19.2747 10.0321 19.3865 9.92032 19.3865 9.78241C19.3865 9.64451 19.2747 9.53271 19.1368 9.53271H16.0577C15.9198 9.53271 15.808 9.64451 15.808 9.78241C15.808 9.92032 15.9198 10.0321 16.0577 10.0321Z" fill="black"/>
<path d="M9.08662 11.5105H19.1368C19.2747 11.5105 19.3865 11.3987 19.3865 11.2608C19.3865 11.1228 19.2747 11.0111 19.1368 11.0111H9.08662C8.94872 11.0111 8.83692 11.1228 8.83692 11.2608C8.83692 11.3987 8.94872 11.5105 9.08662 11.5105Z" fill="black"/>
<path d="M9.08564 12.9888H19.1368C19.2747 12.9888 19.3865 12.877 19.3865 12.7391C19.3865 12.6011 19.2747 12.4893 19.1368 12.4893H9.08564C8.94773 12.4893 8.83593 12.6011 8.83593 12.7391C8.83593 12.877 8.94773 12.9888 9.08564 12.9888Z" fill="black"/>
<path d="M19.1369 13.9652H9.08564C8.94773 13.9652 8.83593 14.077 8.83593 14.2149C8.83593 14.3528 8.94773 14.4646 9.08564 14.4646H19.1369C19.2748 14.4646 19.3866 14.3528 19.3866 14.2149C19.3866 14.077 19.2748 13.9652 19.1369 13.9652Z" fill="black"/>
<path d="M12.1647 15.4435H9.08564C8.94773 15.4435 8.83593 15.5553 8.83593 15.6932C8.83593 15.8311 8.94773 15.9429 9.08564 15.9429H12.1647C12.3026 15.9429 12.4144 15.8311 12.4144 15.6932C12.4144 15.5553 12.3026 15.4435 12.1647 15.4435Z" fill="black"/>
<path d="M12.1647 16.9218H9.08564C8.94773 16.9218 8.83593 17.0336 8.83593 17.1715C8.83593 17.3094 8.94773 17.4212 9.08564 17.4212H12.1647C12.3026 17.4212 12.4144 17.3094 12.4144 17.1715C12.4144 17.0336 12.3026 16.9218 12.1647 16.9218Z" fill="black"/>
<path d="M12.1647 18.4001H9.08564C8.94773 18.4001 8.83593 18.5119 8.83593 18.6498C8.83593 18.7877 8.94773 18.8995 9.08564 18.8995H12.1647C12.3026 18.8995 12.4144 18.7877 12.4144 18.6498C12.4144 18.5119 12.3026 18.4001 12.1647 18.4001Z" fill="black"/>
<path d="M12.1647 19.8766H9.08564C8.94773 19.8766 8.83593 19.9884 8.83593 20.1263C8.83593 20.2642 8.94773 20.376 9.08564 20.376H12.1647C12.3026 20.376 12.4144 20.2642 12.4144 20.1263C12.4144 19.9884 12.3026 19.8766 12.1647 19.8766Z" fill="black"/>
<path d="M18.6374 15.4437H14.1624C13.7493 15.4437 13.4133 15.7798 13.4133 16.1929V19.6269C13.4133 20.04 13.7493 20.376 14.1624 20.376H18.6374C19.0506 20.376 19.3866 20.04 19.3866 19.6269V16.1929C19.3866 15.7798 19.0506 15.4437 18.6374 15.4437ZM18.8872 19.6269C18.8872 19.7645 18.7751 19.8766 18.6374 19.8766H14.1624C14.0248 19.8766 13.9127 19.7645 13.9127 19.6269V16.1929C13.9127 16.0552 14.0248 15.9432 14.1624 15.9432H18.6374C18.7751 15.9432 18.8872 16.0553 18.8872 16.1929V19.6269Z" fill="black"/>
</svg>
