<svg width="24" height="24" viewBox="0 0 24 24" fill="none" xmlns="http://www.w3.org/2000/svg">
<path d="M4.64609 20.4853L20.4853 4.6461C20.7977 4.3337 20.7977 3.82713 20.4853 3.51473C20.1729 3.20234 19.6663 3.20233 19.3539 3.51473L3.51472 19.3539C3.20232 19.6663 3.20232 20.1729 3.51472 20.4853C3.82712 20.7977 4.33369 20.7977 4.64609 20.4853Z" fill="white"/>
<path d="M20.4853 19.3539L4.64612 3.51472C4.33371 3.20232 3.82714 3.20233 3.51474 3.51472C3.20235 3.82712 3.20234 4.3337 3.51474 4.6461L19.3539 20.4853C19.6663 20.7977 20.1729 20.7977 20.4853 20.4853C20.7977 20.1729 20.7977 19.6663 20.4853 19.3539Z" fill="white"/>
</svg>
