<svg width="20" height="21" viewBox="0 0 20 21" fill="none" xmlns="http://www.w3.org/2000/svg">
<g clip-path="url(#clip0_1010_1572)">
<path d="M14.3876 0.5H5.6124C4.86521 0.5 4.25732 1.10789 4.25732 1.85508V19.1449C4.25732 19.8921 4.86521 20.5 5.6124 20.5H14.3876C15.1348 20.5 15.7427 19.8921 15.7427 19.1449V1.85508C15.7427 1.10789 15.1348 0.5 14.3876 0.5ZM15.1177 19.1449C15.1177 19.5475 14.7902 19.875 14.3876 19.875H5.6124C5.20982 19.875 4.88232 19.5475 4.88232 19.1449V1.85508C4.88232 1.4525 5.20982 1.125 5.6124 1.125H14.3876C14.7902 1.125 15.1177 1.4525 15.1177 1.85508V19.1449H15.1177ZM11.3334 2.18093C11.3334 2.35351 11.1934 2.49343 11.0209 2.49343H8.97911C8.80653 2.49343 8.66661 2.35351 8.66661 2.18093C8.66661 2.00836 8.80653 1.86843 8.97911 1.86843H11.0209C11.1934 1.86843 11.3334 2.00832 11.3334 2.18093ZM9.99997 17.3881C9.42048 17.3881 8.94903 17.8595 8.94903 18.439C8.94903 19.0185 9.42048 19.49 9.99997 19.49C10.5795 19.49 11.0509 19.0185 11.0509 18.439C11.0509 17.8595 10.5795 17.3881 9.99997 17.3881ZM9.99997 18.865C9.76513 18.865 9.57403 18.6739 9.57403 18.439C9.57403 18.2041 9.76513 18.0131 9.99997 18.0131C10.2348 18.0131 10.4259 18.2042 10.4259 18.439C10.4259 18.6739 10.2349 18.865 9.99997 18.865Z" fill="black"/>
<g clip-path="url(#clip1_1010_1572)">
<path fill-rule="evenodd" clip-rule="evenodd" d="M-102.01 -231.322C-108.005 -231.322 -112.886 -226.443 -112.886 -220.435V244.453C-112.886 252.105 -106.668 258.322 -99.0172 258.322H131.017C138.656 258.322 144.885 252.105 144.885 244.453L144.886 -217.454C144.886 -225.105 138.654 -231.322 131.016 -231.322H-102.01V-231.322ZM131.017 269.501H-99.016C-112.839 269.501 -124.065 258.264 -124.065 244.453L-124.063 -220.436C-124.063 -232.604 -114.167 -242.501 -102.01 -242.501H131.017C144.828 -242.501 156.064 -231.264 156.064 -217.454L156.065 244.453C156.065 258.264 144.826 269.501 131.017 269.501V269.501Z" fill="black"/>
</g>
</g>
<defs>
<clipPath id="clip0_1010_1572">
<rect width="20" height="20" fill="white" transform="translate(0 0.5)"/>
</clipPath>
<clipPath id="clip1_1010_1572">
<rect width="512" height="512" fill="white" transform="translate(-240 -242.5)"/>
</clipPath>
</defs>
</svg>
