<svg width="24" height="24" viewBox="0 0 24 24" fill="none" xmlns="http://www.w3.org/2000/svg">
<g clip-path="url(#clip0_279_2697)">
<path d="M17.2652 0H6.73498C5.83835 0 5.10889 0.729467 5.10889 1.62609V22.3739C5.10889 23.2705 5.83835 24 6.73498 24H17.2652C18.1619 24 18.8914 23.2705 18.8914 22.3739V1.62609C18.8913 0.729467 18.1619 0 17.2652 0ZM18.1413 22.3739C18.1413 22.857 17.7483 23.25 17.2652 23.25H6.73498C6.25188 23.25 5.85889 22.857 5.85889 22.3739V1.62609C5.85889 1.143 6.25188 0.749999 6.73498 0.749999H17.2652C17.7483 0.749999 18.1414 1.143 18.1414 1.62609V22.3739H18.1413ZM13.6001 2.01712C13.6001 2.22421 13.4322 2.39212 13.2251 2.39212H10.775C10.5679 2.39212 10.4 2.22421 10.4 2.01712C10.4 1.81003 10.5679 1.64212 10.775 1.64212H13.2251C13.4322 1.64212 13.6001 1.80998 13.6001 2.01712ZM12.0001 20.2657C11.3047 20.2657 10.7389 20.8314 10.7389 21.5268C10.7389 22.2222 11.3047 22.788 12.0001 22.788C12.6954 22.788 13.2612 22.2222 13.2612 21.5268C13.2612 20.8314 12.6954 20.2657 12.0001 20.2657ZM12.0001 22.038C11.7182 22.038 11.4889 21.8086 11.4889 21.5268C11.4889 21.245 11.7182 21.0157 12.0001 21.0157C12.2819 21.0157 12.5112 21.245 12.5112 21.5268C12.5112 21.8086 12.2819 22.038 12.0001 22.038Z" fill="black"/>
<g clip-path="url(#clip1_279_2697)">
<path fill-rule="evenodd" clip-rule="evenodd" d="M-102.01 -231.822C-108.005 -231.822 -112.886 -226.943 -112.886 -220.935V243.953C-112.886 251.605 -106.668 257.822 -99.0172 257.822H131.017C138.656 257.822 144.885 251.605 144.885 243.953L144.886 -217.954C144.886 -225.605 138.654 -231.822 131.016 -231.822H-102.01V-231.822ZM131.017 269.001H-99.016C-112.839 269.001 -124.065 257.764 -124.065 243.953L-124.063 -220.936C-124.063 -233.104 -114.167 -243.001 -102.01 -243.001H131.017C144.828 -243.001 156.064 -231.764 156.064 -217.954L156.065 243.953C156.065 257.764 144.826 269.001 131.017 269.001V269.001Z" fill="black"/>
</g>
</g>
<defs>
<clipPath id="clip0_279_2697">
<rect width="24" height="24" fill="white"/>
</clipPath>
<clipPath id="clip1_279_2697">
<rect width="512" height="512" fill="white" transform="translate(-240 -243)"/>
</clipPath>
</defs>
</svg>
