<svg width="20" height="21" viewBox="0 0 20 21" fill="none" xmlns="http://www.w3.org/2000/svg">
<path d="M19.0467 18.4206C18.3748 14.9257 15.6281 12.1789 12.183 11.3484C13.1654 10.8566 13.9531 10.0475 14.4184 9.0522C14.8837 8.0569 14.9994 6.93366 14.7467 5.86441C14.4941 4.79516 13.8878 3.84253 13.0262 3.16079C12.1646 2.47906 11.0981 2.10815 9.99937 2.10815C8.90068 2.10815 7.83415 2.47906 6.97254 3.16079C6.11092 3.84253 5.50468 4.79516 5.252 5.86441C4.99933 6.93366 5.11501 8.0569 5.58032 9.0522C6.04562 10.0475 6.8333 10.8566 7.81578 11.3484C4.37109 12.1785 1.6239 14.9251 0.952967 18.4206C0.942879 18.4726 0.943447 18.5262 0.954637 18.5781C0.965827 18.6299 0.987406 18.6789 1.01807 18.7222C1.04874 18.7655 1.08786 18.8021 1.13306 18.8298C1.17827 18.8575 1.22862 18.8758 1.28109 18.8835C1.3798 18.8981 1.4803 18.874 1.56176 18.8164C1.64322 18.7588 1.69938 18.6721 1.71859 18.5742C2.45515 14.7267 5.94984 11.8689 9.99984 11.8689C14.0498 11.8689 17.5445 14.7267 18.2811 18.5743C18.3003 18.6722 18.3565 18.759 18.4379 18.8166C18.5194 18.8742 18.6199 18.8982 18.7186 18.8837C18.7711 18.876 18.8214 18.8577 18.8667 18.8299C18.9119 18.8022 18.951 18.7656 18.9817 18.7223C19.0123 18.679 19.0339 18.63 19.0451 18.5781C19.0563 18.5262 19.0568 18.4727 19.0467 18.4206ZM5.90297 6.99074C5.90297 6.18045 6.14324 5.38836 6.59342 4.71463C7.04359 4.04091 7.68343 3.5158 8.43204 3.20572C9.18064 2.89563 10.0044 2.8145 10.7991 2.97258C11.5938 3.13066 12.3238 3.52085 12.8968 4.09381C13.4697 4.66677 13.8599 5.39676 14.018 6.19147C14.1761 6.98619 14.0949 7.80994 13.7849 8.55854C13.4748 9.30715 12.9497 9.94699 12.2759 10.3972C11.6022 10.8473 10.8101 11.0876 9.99984 11.0876C8.91363 11.0865 7.87222 10.6545 7.10415 9.88643C6.33608 9.11836 5.90408 8.07695 5.90297 6.99074Z" fill="black"/>
</svg>
