<svg width="24" height="24" viewBox="0 0 24 24" fill="none" xmlns="http://www.w3.org/2000/svg">
<path d="M14.7405 4.25618H9.25983C9.06578 4.25619 8.87429 4.21197 8.6999 4.12689C8.52551 4.04181 8.3728 3.9181 8.25337 3.76516C8.13395 3.61222 8.05096 3.43407 8.0107 3.24426C7.97044 3.05444 7.97397 2.85794 8.02102 2.66969L8.44664 0.967217C8.51547 0.690817 8.67484 0.445413 8.89936 0.270119C9.12387 0.0948262 9.4006 -0.000265692 9.68544 5.95324e-07H14.3149C14.5997 -0.000274449 14.8764 0.094762 15.1009 0.26997C15.3254 0.445178 15.4848 0.690478 15.5537 0.966792L15.9793 2.66969C16.0264 2.85794 16.0299 3.05444 15.9896 3.24426C15.9494 3.43407 15.8664 3.61222 15.747 3.76516C15.6275 3.9181 15.4748 4.04181 15.3004 4.12689C15.126 4.21197 14.9345 4.25619 14.7405 4.25618ZM9.68544 0.851236C9.59049 0.851161 9.49825 0.882881 9.42342 0.941337C9.3486 0.999794 9.2955 1.08162 9.27259 1.17377L8.84698 2.87582C8.83129 2.93857 8.83011 3.00408 8.84352 3.06736C8.85693 3.13065 8.88459 3.19005 8.92438 3.24105C8.96417 3.29205 9.01506 3.33331 9.07319 3.36171C9.13131 3.39011 9.19514 3.4049 9.25983 3.40494H14.7405C14.8052 3.4049 14.869 3.39011 14.9271 3.36171C14.9853 3.33331 15.0362 3.29205 15.076 3.24105C15.1157 3.19005 15.1434 3.13065 15.1568 3.06736C15.1702 3.00408 15.169 2.93857 15.1534 2.87582L14.7277 1.17334C14.7047 1.08128 14.6516 0.999559 14.5768 0.941188C14.502 0.882817 14.4098 0.851152 14.3149 0.851236H9.68544Z" fill="black"/>
<path d="M18.81 20.4297H5.19027C5.07739 20.4297 4.96913 20.3848 4.88931 20.305C4.80949 20.2252 4.76465 20.1169 4.76465 20.004V8.93798C4.76577 7.9224 5.16971 6.94874 5.88784 6.23061C6.60596 5.51249 7.57963 5.10855 8.59521 5.10742H15.4051C16.4207 5.10855 17.3943 5.51249 18.1125 6.23061C18.8306 6.94874 19.2345 7.9224 19.2357 8.93798V20.004C19.2357 20.1169 19.1908 20.2252 19.111 20.305C19.0312 20.3848 18.9229 20.4297 18.81 20.4297ZM5.61588 19.5784H18.3844V8.93798C18.3835 8.1481 18.0693 7.39082 17.5108 6.83229C16.9523 6.27376 16.195 5.95957 15.4051 5.95866H8.59521C7.80532 5.95957 7.04805 6.27376 6.48952 6.83229C5.93098 7.39082 5.6168 8.1481 5.61588 8.93798V19.5784Z" fill="black"/>
<path d="M16.2563 20.4297H7.74398C7.6311 20.4297 7.52284 20.3848 7.44302 20.305C7.3632 20.2252 7.31836 20.1169 7.31836 20.004V8.93799C7.31873 8.59946 7.45338 8.2749 7.69275 8.03553C7.93213 7.79615 8.25668 7.6615 8.59521 7.66113H15.4051C15.7436 7.6615 16.0682 7.79615 16.3076 8.03553C16.5469 8.2749 16.6816 8.59946 16.682 8.93799V20.004C16.682 20.1169 16.6371 20.2252 16.5573 20.305C16.4775 20.3848 16.3692 20.4297 16.2563 20.4297ZM8.1696 19.5784H15.8307V8.93799C15.8306 8.82514 15.7857 8.71694 15.7059 8.63714C15.6261 8.55734 15.5179 8.51247 15.4051 8.51237H8.59521C8.48236 8.51247 8.37416 8.55734 8.29437 8.63714C8.21457 8.71694 8.1697 8.82514 8.1696 8.93799V19.5784Z" fill="black"/>
<path d="M18.3461 23.8345H5.65416C5.17956 23.8362 4.714 23.7048 4.31027 23.4554C3.90654 23.2059 3.5808 22.8482 3.36999 22.423L3.17966 22.0423C3.04991 21.7827 2.98866 21.4943 3.00173 21.2044C3.01479 20.9145 3.10173 20.6327 3.2543 20.3859C3.40687 20.139 3.61999 19.9353 3.87345 19.7939C4.12691 19.6526 4.41228 19.5784 4.70247 19.5784H19.2978C19.5879 19.5784 19.8733 19.6526 20.1267 19.794C20.3802 19.9353 20.5933 20.1391 20.7458 20.3859C20.8984 20.6328 20.9853 20.9145 20.9984 21.2044C21.0114 21.4943 20.9502 21.7827 20.8205 22.0423L20.6301 22.423C20.4193 22.8482 20.0936 23.2058 19.6899 23.4553C19.2862 23.7048 18.8207 23.8362 18.3461 23.8345ZM4.70247 20.4296C4.5573 20.4291 4.41443 20.4659 4.28763 20.5366C4.16082 20.6073 4.05433 20.7094 3.97841 20.8332C3.90065 20.9561 3.85631 21.0971 3.84979 21.2424C3.84326 21.3877 3.87478 21.5322 3.94121 21.6616L4.13159 22.0423C4.27208 22.3258 4.48919 22.5642 4.75831 22.7305C5.02744 22.8969 5.33779 22.9844 5.65416 22.9833H18.3461C18.6625 22.9845 18.9728 22.8969 19.242 22.7306C19.5111 22.5642 19.7283 22.3258 19.8688 22.0423L20.0591 21.6616C20.1256 21.5322 20.1571 21.3877 20.1506 21.2424C20.1441 21.0971 20.0997 20.9561 20.0219 20.8332C19.946 20.7094 19.8395 20.6073 19.7127 20.5366C19.5858 20.4659 19.443 20.4291 19.2978 20.4296H4.70247Z" fill="black"/>
<path d="M16.2563 12.7685H7.74398C7.6311 12.7685 7.52284 12.7236 7.44302 12.6438C7.3632 12.564 7.31836 12.4557 7.31836 12.3429C7.31836 12.23 7.3632 12.1217 7.44302 12.0419C7.52284 11.9621 7.6311 11.9172 7.74398 11.9172H16.2563C16.3692 11.9172 16.4775 11.9621 16.5573 12.0419C16.6371 12.1217 16.682 12.23 16.682 12.3429C16.682 12.4557 16.6371 12.564 16.5573 12.6438C16.4775 12.7236 16.3692 12.7685 16.2563 12.7685Z" fill="black"/>
<path d="M10.2977 5.95874C10.1848 5.95874 10.0765 5.91389 9.99673 5.83408C9.91691 5.75426 9.87207 5.646 9.87207 5.53312V3.83065C9.87207 3.71777 9.91691 3.60951 9.99673 3.52969C10.0765 3.44987 10.1848 3.40503 10.2977 3.40503C10.4106 3.40503 10.5188 3.44987 10.5986 3.52969C10.6785 3.60951 10.7233 3.71777 10.7233 3.83065V5.53312C10.7233 5.646 10.6785 5.75426 10.5986 5.83408C10.5188 5.91389 10.4106 5.95874 10.2977 5.95874Z" fill="black"/>
<path d="M13.7025 5.95874C13.5896 5.95874 13.4813 5.91389 13.4015 5.83408C13.3217 5.75426 13.2769 5.646 13.2769 5.53312V3.83065C13.2769 3.71777 13.3217 3.60951 13.4015 3.52969C13.4813 3.44987 13.5896 3.40503 13.7025 3.40503C13.8154 3.40503 13.9236 3.44987 14.0034 3.52969C14.0832 3.60951 14.1281 3.71777 14.1281 3.83065V5.53312C14.1281 5.646 14.0832 5.75426 14.0034 5.83408C13.9236 5.91389 13.8154 5.95874 13.7025 5.95874Z" fill="black"/>
</svg>
