<svg width="20" height="21" viewBox="0 0 20 21" fill="none" xmlns="http://www.w3.org/2000/svg">
<g clip-path="url(#clip0_1010_1587)">
<path d="M12.2837 4.04682H7.71644C7.55474 4.04682 7.39516 4.00998 7.24983 3.93908C7.10451 3.86817 6.97725 3.76508 6.87773 3.63763C6.77821 3.51018 6.70905 3.36173 6.6755 3.20355C6.64195 3.04536 6.64489 2.88162 6.6841 2.72474L7.03879 1.30601C7.09614 1.07568 7.22895 0.871177 7.41605 0.7251C7.60314 0.579022 7.83375 0.499779 8.07112 0.5H11.929C12.1663 0.499771 12.3969 0.578968 12.584 0.724975C12.771 0.870981 12.9039 1.0754 12.9613 1.30566L13.316 2.72474C13.3552 2.88162 13.3582 3.04536 13.3246 3.20355C13.2911 3.36173 13.2219 3.51018 13.1224 3.63763C13.0229 3.76508 12.8956 3.86817 12.7503 3.93908C12.605 4.00998 12.4454 4.04682 12.2837 4.04682ZM8.07112 1.20936C7.99199 1.2093 7.91512 1.23573 7.85277 1.28445C7.79042 1.33316 7.74617 1.40135 7.72708 1.47814L7.3724 2.89651C7.35933 2.94881 7.35834 3.0034 7.36952 3.05614C7.3807 3.10887 7.40374 3.15837 7.4369 3.20087C7.47006 3.24337 7.51247 3.27776 7.56091 3.30143C7.60934 3.32509 7.66253 3.33741 7.71644 3.33745H12.2837C12.3376 3.33741 12.3908 3.32509 12.4392 3.30143C12.4876 3.27776 12.5301 3.24337 12.5632 3.20087C12.5964 3.15837 12.6194 3.10887 12.6306 3.05614C12.6418 3.0034 12.6408 2.94881 12.6277 2.89651L12.273 1.47779C12.2539 1.40107 12.2096 1.33297 12.1472 1.28432C12.0849 1.23568 12.0081 1.20929 11.929 1.20936H8.07112Z" fill="black"/>
<path d="M15.6752 17.5246H4.32538C4.23132 17.5246 4.1411 17.4873 4.07459 17.4208C4.00807 17.3542 3.9707 17.264 3.9707 17.17V7.94824C3.97164 7.10192 4.30826 6.29053 4.90669 5.69209C5.50513 5.09366 6.31652 4.75704 7.16284 4.7561H12.8377C13.6841 4.75704 14.4954 5.09366 15.0939 5.69209C15.6923 6.29053 16.0289 7.10192 16.0299 7.94824V17.17C16.0299 17.264 15.9925 17.3542 15.926 17.4208C15.8595 17.4873 15.7693 17.5246 15.6752 17.5246ZM4.68007 16.8153H15.3205V7.94824C15.3198 7.29 15.0579 6.65894 14.5925 6.19349C14.127 5.72805 13.496 5.46623 12.8377 5.46547H7.16284C6.5046 5.46623 5.87354 5.72805 5.40809 6.19349C4.94265 6.65894 4.68083 7.29 4.68007 7.94824V16.8153Z" fill="black"/>
<path d="M13.5469 17.5247H6.45331C6.35925 17.5247 6.26903 17.4874 6.20252 17.4208C6.136 17.3543 6.09863 17.2641 6.09863 17.17V7.94832C6.09894 7.66621 6.21115 7.39575 6.41063 7.19627C6.61011 6.99679 6.88057 6.88459 7.16268 6.88428H12.8376C13.1197 6.88459 13.3902 6.99679 13.5896 7.19627C13.7891 7.39575 13.9013 7.66621 13.9016 7.94832V17.17C13.9016 17.2641 13.8643 17.3543 13.7977 17.4208C13.7312 17.4874 13.641 17.5247 13.5469 17.5247ZM6.808 16.8154H13.1923V7.94832C13.1922 7.85428 13.1548 7.76411 13.0883 7.69762C13.0218 7.63112 12.9316 7.59372 12.8376 7.59364H7.16268C7.06864 7.59372 6.97847 7.63112 6.91197 7.69762C6.84548 7.76411 6.80808 7.85428 6.808 7.94832V16.8154Z" fill="black"/>
<path d="M15.2884 20.3622H4.7118C4.3163 20.3636 3.92833 20.2542 3.59189 20.0462C3.25545 19.8383 2.984 19.5403 2.80833 19.186L2.64971 18.8687C2.54159 18.6524 2.49055 18.412 2.50144 18.1705C2.51233 17.9289 2.58478 17.6941 2.71192 17.4884C2.83906 17.2827 3.01666 17.1128 3.22787 16.9951C3.43909 16.8773 3.6769 16.8155 3.91873 16.8154H16.0815C16.3233 16.8155 16.5611 16.8773 16.7723 16.9951C16.9835 17.1129 17.1611 17.2827 17.2882 17.4884C17.4153 17.6941 17.4878 17.9289 17.4987 18.1705C17.5095 18.4121 17.4585 18.6524 17.3504 18.8687L17.1918 19.186C17.0161 19.5403 16.7447 19.8383 16.4082 20.0462C16.0718 20.2541 15.6839 20.3636 15.2884 20.3622ZM3.91873 17.5248C3.79775 17.5244 3.6787 17.5551 3.57302 17.614C3.46735 17.6729 3.37861 17.758 3.31534 17.8611C3.25054 17.9635 3.21359 18.0811 3.20815 18.2021C3.20272 18.3232 3.22898 18.4436 3.28434 18.5514L3.44299 18.8687C3.56006 19.1049 3.74099 19.3036 3.96526 19.4422C4.18953 19.5808 4.44816 19.6538 4.7118 19.6529H15.2884C15.5521 19.6538 15.8107 19.5809 16.035 19.4423C16.2593 19.3037 16.4402 19.105 16.5573 18.8687L16.716 18.5514C16.7713 18.4436 16.7976 18.3232 16.7921 18.2021C16.7867 18.0811 16.7498 17.9635 16.685 17.8611C16.6217 17.758 16.5329 17.6729 16.4272 17.614C16.3215 17.5551 16.2025 17.5243 16.0815 17.5248H3.91873Z" fill="black"/>
<path d="M13.5469 11.1405H6.45331C6.35925 11.1405 6.26903 11.1031 6.20252 11.0366C6.136 10.9701 6.09863 10.8799 6.09863 10.7858C6.09863 10.6918 6.136 10.6016 6.20252 10.535C6.26903 10.4685 6.35925 10.4312 6.45331 10.4312H13.5469C13.641 10.4312 13.7312 10.4685 13.7977 10.535C13.8643 10.6016 13.9016 10.6918 13.9016 10.7858C13.9016 10.8799 13.8643 10.9701 13.7977 11.0366C13.7312 11.1031 13.641 11.1405 13.5469 11.1405Z" fill="black"/>
<path d="M8.58124 5.46549C8.48718 5.46549 8.39696 5.42812 8.33045 5.36161C8.26393 5.29509 8.22656 5.20488 8.22656 5.11081V3.69208C8.22656 3.59802 8.26393 3.5078 8.33045 3.44129C8.39696 3.37477 8.48718 3.3374 8.58124 3.3374C8.67531 3.3374 8.76553 3.37477 8.83204 3.44129C8.89856 3.5078 8.93593 3.59802 8.93593 3.69208V5.11081C8.93593 5.20488 8.89856 5.29509 8.83204 5.36161C8.76553 5.42812 8.67531 5.46549 8.58124 5.46549Z" fill="black"/>
<path d="M11.4186 5.46549C11.3246 5.46549 11.2344 5.42812 11.1678 5.36161C11.1013 5.29509 11.064 5.20488 11.064 5.11081V3.69208C11.064 3.59802 11.1013 3.5078 11.1678 3.44129C11.2344 3.37477 11.3246 3.3374 11.4186 3.3374C11.5127 3.3374 11.6029 3.37477 11.6694 3.44129C11.736 3.5078 11.7733 3.59802 11.7733 3.69208V5.11081C11.7733 5.20488 11.736 5.29509 11.6694 5.36161C11.6029 5.42812 11.5127 5.46549 11.4186 5.46549Z" fill="black"/>
</g>
<defs>
<clipPath id="clip0_1010_1587">
<rect width="20" height="20" fill="white" transform="translate(0 0.5)"/>
</clipPath>
</defs>
</svg>
