<svg width="24" height="24" viewBox="0 0 24 24" fill="none" xmlns="http://www.w3.org/2000/svg">
<path d="M14.2 2H11.8C11.4684 2 11.2 2.26841 11.2 2.6C11.2 2.93159 11.4684 3.2 11.8 3.2H14.2C14.5315 3.2 14.8 2.93159 14.8 2.6C14.8 2.26841 14.5315 2 14.2 2Z" fill="white"/>
<path d="M16.8001 0H7.20005C5.87686 0 4.80005 1.07681 4.80005 2.4V21.6C4.80005 22.9232 5.87686 24 7.20005 24H16.8001C18.1232 24 19.2001 22.9232 19.2001 21.6V2.4C19.2001 1.07681 18.1232 0 16.8001 0ZM18.0001 21.6C18.0001 22.2628 17.4629 22.8 16.8001 22.8H7.20005C6.53724 22.8 6.00005 22.2628 6.00005 21.6V2.4C6.00005 1.73719 6.53724 1.2 7.20005 1.2H16.8001C17.4629 1.2 18.0001 1.73719 18.0001 2.4V21.6Z" fill="white"/>
<path d="M12 22.0001C12.6628 22.0001 13.2001 21.4628 13.2001 20.8001C13.2001 20.1374 12.6628 19.6001 12 19.6001C11.3373 19.6001 10.8 20.1374 10.8 20.8001C10.8 21.4628 11.3373 22.0001 12 22.0001Z" fill="white"/>
<path d="M9.79995 3.2C10.1313 3.2 10.4 2.93137 10.4 2.6C10.4 2.26863 10.1313 2 9.79995 2C9.46858 2 9.19995 2.26863 9.19995 2.6C9.19995 2.93137 9.46858 3.2 9.79995 3.2Z" fill="white"/>
</svg>
