<svg width="20" height="21" viewBox="0 0 20 21" fill="none" xmlns="http://www.w3.org/2000/svg">
<g clip-path="url(#clip0_1010_1568)">
<path d="M0.201156 8.32562C-0.0525155 8.09151 -0.068414 7.69612 0.165688 7.44245C1.40623 6.09808 2.87823 5.03909 4.5408 4.29491C6.26252 3.52429 8.09924 3.13354 10 3.13354C11.9008 3.13354 13.7375 3.52429 15.4592 4.29491C17.1218 5.03909 18.5938 6.09808 19.8343 7.44245C20.0684 7.69612 20.0525 8.09155 19.7989 8.32562C19.6787 8.43647 19.5267 8.49128 19.3751 8.49128C19.2067 8.49128 19.0389 8.42366 18.9156 8.29015C16.6248 5.80745 13.3751 4.38355 10 4.38355C6.62495 4.38355 3.3753 5.80745 1.08436 8.29015C0.850258 8.54382 0.454828 8.55968 0.201156 8.32562ZM16.0703 11.1193C16.2996 11.3773 16.6946 11.4005 16.9526 11.1711C17.2106 10.9417 17.2337 10.5467 17.0044 10.2887C15.2262 8.28898 12.6732 7.1421 10 7.1421C7.32678 7.1421 4.77381 8.28901 2.99569 10.2887C2.76631 10.5467 2.78948 10.9417 3.04745 11.1711C3.16655 11.277 3.31479 11.3291 3.46252 11.3291C3.63479 11.3291 3.80635 11.2582 3.92983 11.1194C5.47096 9.38616 7.68346 8.39214 10 8.39214C12.3166 8.3921 14.5291 9.38612 16.0703 11.1193ZM13.2068 13.9389C13.3303 14.0926 13.5115 14.1724 13.6943 14.1724C13.8317 14.1724 13.9701 14.1273 14.0855 14.0345C14.3545 13.8183 14.3973 13.4249 14.1811 13.1558C13.1568 11.8815 11.6329 11.1506 10 11.1506C8.36717 11.1506 6.84327 11.8815 5.81893 13.1558C5.60268 13.4248 5.64545 13.8182 5.91452 14.0345C6.18358 14.2508 6.57698 14.208 6.79323 13.9389C7.57905 12.9613 8.74788 12.4007 10 12.4007C11.2522 12.4006 12.421 12.9613 13.2068 13.9389ZM10 15.1592C10.7464 15.1592 11.3536 15.7664 11.3536 16.5127C11.3536 17.2591 10.7464 17.8662 10 17.8662C9.25366 17.8662 8.64647 17.2591 8.64647 16.5127C8.64647 15.7664 9.25366 15.1592 10 15.1592ZM10 16.4092C9.94389 16.4092 9.89647 16.4566 9.89647 16.5127C9.89647 16.5689 9.94389 16.6162 10 16.6162C10.0562 16.6162 10.1036 16.5688 10.1036 16.5127C10.1035 16.4566 10.0562 16.4092 10 16.4092Z" fill="black"/>
</g>
<defs>
<clipPath id="clip0_1010_1568">
<rect width="20" height="20" fill="white" transform="translate(0 0.5)"/>
</clipPath>
</defs>
</svg>
