<svg width="24" height="24" viewBox="0 0 24 24" fill="none" xmlns="http://www.w3.org/2000/svg">
<g clip-path="url(#clip0_279_2624)">
<path d="M0.241388 9.39088C-0.0630187 9.10996 -0.0820968 8.63549 0.198825 8.33109C1.68748 6.71784 3.45387 5.44706 5.44897 4.55404C7.51503 3.62929 9.71909 3.1604 12 3.1604C14.281 3.1604 16.485 3.62929 18.551 4.55404C20.5461 5.44706 22.3126 6.71784 23.8012 8.33109C24.0821 8.63549 24.063 9.11001 23.7586 9.39088C23.6144 9.52392 23.432 9.58968 23.2502 9.58968C23.0481 9.58968 22.8467 9.50854 22.6988 9.34832C19.9497 6.36909 16.0501 4.6604 12 4.6604C7.94994 4.6604 4.05036 6.36909 1.30123 9.34832C1.02031 9.65273 0.545794 9.67176 0.241388 9.39088ZM19.2843 12.7433C19.5596 13.0529 20.0336 13.0807 20.3431 12.8054C20.6527 12.5302 20.6805 12.0562 20.4052 11.7466C18.2715 9.34692 15.2079 7.97067 12 7.97067C8.79214 7.97067 5.72858 9.34696 3.59483 11.7466C3.31958 12.0562 3.34737 12.5302 3.65693 12.8055C3.79986 12.9325 3.97775 12.995 4.15503 12.995C4.36175 12.995 4.56762 12.91 4.71579 12.7434C6.56515 10.6635 9.22015 9.47071 12 9.47071C14.7799 9.47067 17.4349 10.6635 19.2843 12.7433ZM15.8482 16.1269C15.9964 16.3112 16.2138 16.407 16.4332 16.407C16.5981 16.407 16.7641 16.3529 16.9026 16.2416C17.2254 15.9821 17.2768 15.51 17.0173 15.1871C15.7882 13.6579 13.9595 12.7809 12 12.7809C10.0406 12.7809 8.21192 13.6579 6.98272 15.1871C6.72322 15.5099 6.77454 15.982 7.09742 16.2416C7.42029 16.5011 7.89237 16.4497 8.15187 16.1269C9.09486 14.9537 10.4975 14.2809 12 14.2809C13.5027 14.2809 14.9052 14.9537 15.8482 16.1269ZM12 17.5912C12.8956 17.5912 13.6243 18.3198 13.6243 19.2154C13.6243 20.111 12.8957 20.8396 12 20.8396C11.1044 20.8396 10.3758 20.111 10.3758 19.2154C10.3758 18.3198 11.1044 17.5912 12 17.5912ZM12 19.0912C11.9327 19.0912 11.8758 19.1481 11.8758 19.2154C11.8758 19.2828 11.9327 19.3396 12 19.3396C12.0674 19.3396 12.1243 19.2827 12.1243 19.2154C12.1242 19.1481 12.0674 19.0912 12 19.0912Z" fill="black"/>
</g>
<defs>
<clipPath id="clip0_279_2624">
<rect width="24" height="24" fill="white"/>
</clipPath>
</defs>
</svg>
